<?xml version="1.0" encoding="utf-8"?>
<!-- Generator: Adobe Illustrator 28.0.0, SVG Export Plug-In . SVG Version: 6.00 Build 0)  -->
<svg version="1.1" id="Layer_1" xmlns="http://www.w3.org/2000/svg" xmlns:xlink="http://www.w3.org/1999/xlink" x="0px" y="0px"
	 viewBox="0 0 109 105" style="enable-background:new 0 0 109 105;" xml:space="preserve">
<style type="text/css">
	.st0{fill:#202A3E;}
	.st1{fill:#FF9933;}
</style>
<g id="XMLID_00000116919364072079944190000013032449621249356679_">
	<g>
		<path class="st0" d="M106.4,82.1h-3.6c-0.3,0-0.6-0.1-0.9-0.3c-0.2-0.2-0.4-0.5-0.4-0.9c0-0.3,0.1-0.6,0.4-0.9
			c0.2-0.2,0.5-0.4,0.9-0.4h3.6c-0.2-3.1-1.6-5.9-3.9-8c-2.3-2.1-5.2-3.2-8.3-3.2H53.7v4.9h36.7c0.3,0,0.6,0.2,0.8,0.4
			c0.2,0.2,0.3,0.5,0.3,0.8c0,0.3-0.1,0.6-0.3,0.8c-0.2,0.2-0.5,0.4-0.8,0.4H53.6v17.1h16.2c0.3-2.7,1.6-5.2,3.6-6.9
			c2-1.8,4.6-2.8,7.3-2.8c2.7,0,5.3,1,7.3,2.8c2,1.8,3.3,4.3,3.6,6.9h2.5c3,0,5.9-1.1,8.1-3.1C104.7,87.7,106.1,85,106.4,82.1z
			 M109,80.8C109,80.8,109,80.9,109,80.8c-0.1,3.9-1.7,7.6-4.4,10.2c-2.7,2.7-6.4,4.2-10.3,4.2h-2.5c-0.3,2.9-1.8,5.5-4,7.3H99
			c0.3,0,0.6,0.1,0.9,0.4c0.2,0.2,0.3,0.5,0.3,0.9c0,0.3-0.1,0.6-0.3,0.9c-0.2,0.2-0.6,0.4-0.9,0.4H14.5c-0.3,0-0.6-0.1-0.9-0.4
			c-0.2-0.2-0.4-0.5-0.4-0.9c0-0.3,0.1-0.6,0.4-0.9c0.2-0.2,0.5-0.4,0.9-0.4h8c-2.3-1.8-3.7-4.4-4-7.3h-3.1c-2.8,0-5.6-1.1-7.6-3.1
			c-2-2-3.1-4.7-3.1-7.5V64.2c0-4.7,1.9-9.3,5.2-12.6s7.9-5.2,12.6-5.2h5.4V44h-9.5c-0.3,0-0.6-0.1-0.9-0.4s-0.4-0.5-0.4-0.9v-4.9
			c0-0.3,0.2-0.6,0.4-0.8c0.2-0.2,0.5-0.3,0.8-0.3c0.3,0,0.6,0.1,0.8,0.3c0.2,0.2,0.4,0.5,0.4,0.8v3.7h2.2v-7.3c0-0.2,0-0.3,0.1-0.5
			c0.1-0.1,0.2-0.3,0.3-0.4c0.1-0.1,0.2-0.2,0.4-0.3C22.7,33,22.9,33,23,33h9.8v-8.5c0-0.3,0.1-0.6,0.4-0.9c0.2-0.2,0.5-0.4,0.9-0.4
			h20.8c0.3,0,0.6,0.1,0.9,0.4c0.2,0.2,0.4,0.5,0.4,0.9V33h11c0.2,0,0.3,0,0.5,0.1c0.1,0.1,0.3,0.2,0.4,0.3c0.1,0.1,0.2,0.2,0.3,0.4
			c0.1,0.2,0.1,0.3,0.1,0.5v7.3H71v-3.7c0-0.3,0.2-0.6,0.4-0.8c0.2-0.2,0.5-0.3,0.8-0.3c0.3,0,0.6,0.1,0.8,0.3
			c0.2,0.2,0.4,0.5,0.4,0.8v4.9c0,0.3-0.1,0.6-0.4,0.9c-0.2,0.2-0.5,0.3-0.9,0.3h-8.8v2.4h5.8c2.2,0,4.4,0.6,6.3,1.8
			C77.5,49.4,79,51,80,53l6.5,12.9h7.8c1.9,0,3.9,0.4,5.7,1.1c1.8,0.8,3.4,1.8,4.8,3.2c1.4,1.4,2.4,3,3.2,4.8
			C108.7,76.9,109,78.8,109,80.8C109,80.8,109,80.8,109,80.8z M86.9,100.1c1.6-1.6,2.5-3.8,2.5-6c0-1.7-0.5-3.3-1.5-4.8
			c-0.9-1.4-2.3-2.5-3.8-3.2c-1.6-0.6-3.3-0.8-4.9-0.5C77.5,86,76,86.8,74.8,88c-1.2,1.2-2,2.7-2.3,4.4c-0.3,1.7-0.2,3.4,0.5,4.9
			c0.7,1.6,1.8,2.9,3.2,3.8c1.4,0.9,3.1,1.4,4.8,1.4C83.1,102.6,85.3,101.7,86.9,100.1z M83.8,65.9l-5.5-11H60v11H83.8z M23.6,52.5
			h53.2c-0.9-1.2-2-2.1-3.4-2.7c-1.3-0.6-2.8-1-4.2-0.9H22.5c-4.1,0-8,1.6-10.9,4.5c-2.9,2.9-4.5,6.8-4.5,10.9l0,6.6h4.1
			c0.3,0,0.6,0.1,0.9,0.4c0.2,0.2,0.4,0.5,0.4,0.9V76c0,0.6-0.1,1.2-0.3,1.8c-0.2,0.6-0.6,1.1-1,1.5c-0.4,0.4-0.9,0.8-1.5,1
			c-0.6,0.2-1.2,0.4-1.8,0.4H7.1V83h11c0.3,0,0.6,0.1,0.9,0.4c0.2,0.2,0.4,0.5,0.4,0.9c0,0.3-0.1,0.6-0.4,0.9
			c-0.2,0.2-0.5,0.4-0.9,0.4h-11c0.2,2,1.2,3.9,2.7,5.2c1.5,1.3,3.5,2.1,5.5,2.1h3.1c0.3-2.7,1.6-5.2,3.6-6.9s4.6-2.8,7.3-2.8
			c2.7,0,5.3,1,7.3,2.8s3.3,4.3,3.6,6.9h10.9V75.7H18.1c-0.2,0-0.3,0-0.5-0.1c-0.1-0.1-0.3-0.1-0.4-0.3c-0.1-0.1-0.2-0.2-0.3-0.4
			c-0.1-0.2-0.1-0.3-0.1-0.5c0-0.2,0-0.3,0.1-0.5c0.1-0.1,0.2-0.3,0.3-0.4c0.1-0.1,0.3-0.2,0.4-0.3c0.2-0.1,0.3-0.1,0.5-0.1h33.1
			v-4.9H14.4c-0.6,0-1.2-0.1-1.7-0.4c-0.5-0.3-1-0.7-1.3-1.2c-0.4-0.5-0.6-1-0.7-1.6c-0.1-0.6,0-1.2,0.2-1.8l1-2.7
			c0.9-2.4,2.5-4.5,4.6-6C18.5,53.3,21,52.5,23.6,52.5z M36.3,102.6h37.6c-2.3-1.8-3.7-4.4-4-7.3H40.3
			C40,98.1,38.6,100.8,36.3,102.6z M65.9,41.5v-6.1H53.6v6.1H65.9z M61,46.4V44H30.4v2.4H61z M57.6,65.9V55H36.7v11H57.6z M53.6,33
			v-7.3H35.3V33h8.6c0.3,0,0.6,0.1,0.9,0.4s0.4,0.5,0.4,0.9v7.3h6.1v-7.3c0-0.2,0-0.3,0.1-0.5c0.1-0.1,0.1-0.3,0.3-0.4
			c0.1-0.1,0.2-0.2,0.4-0.3c0.1-0.1,0.3-0.1,0.5-0.1H53.6z M42.6,41.5v-6.1H24.3l0,6.1H42.6z M37.3,97.3c0.6-1.6,0.8-3.3,0.5-4.9
			c-0.3-1.7-1.1-3.2-2.3-4.4c-1.2-1.2-2.7-2-4.4-2.3c-1.7-0.3-3.4-0.2-4.9,0.5c-1.6,0.7-2.9,1.7-3.9,3.2c-0.9,1.4-1.5,3.1-1.5,4.8
			c0,2.3,0.9,4.4,2.5,6c1.6,1.6,3.8,2.5,6,2.5c1.7,0,3.4-0.5,4.8-1.4C35.6,100.2,36.7,98.9,37.3,97.3z M34.3,66V55l-10.7,0
			c-2.1,0-4.1,0.6-5.8,1.8c-1.7,1.2-3,2.9-3.7,4.8l-1,2.7c-0.1,0.2-0.1,0.4-0.1,0.6c0,0.2,0.1,0.4,0.2,0.6c0.1,0.2,0.3,0.3,0.5,0.4
			c0.2,0.1,0.4,0.2,0.6,0.2H34.3z M9.9,76v-2.7H7.1v4.9h0.7c0.3,0,0.6-0.1,0.8-0.2c0.3-0.1,0.5-0.3,0.7-0.5c0.2-0.2,0.4-0.4,0.5-0.7
			C9.9,76.5,9.9,76.2,9.9,76z"/>
		<path class="st1" d="M104,54.9c0.1,0.3,0.2,0.7,0.1,1.1c-0.1,0.3-0.2,0.7-0.5,0.9c-0.3,0.2-0.6,0.4-0.9,0.5
			c-0.4,0.1-0.7,0-1.1-0.1c-0.3-0.1-0.6-0.4-0.8-0.7c-0.2-0.3-0.3-0.7-0.3-1c0-0.5,0.2-1,0.5-1.3c0.3-0.3,0.8-0.5,1.3-0.5
			c0.4,0,0.7,0.1,1,0.3C103.6,54.2,103.8,54.5,104,54.9z"/>
		<path class="st1" d="M101.5,1.1c0.1,0.3,0.2,0.7,0.1,1.1c-0.1,0.3-0.2,0.7-0.5,0.9c-0.2,0.2-0.6,0.4-0.9,0.5
			c-0.3,0.1-0.7,0-1.1-0.1c-0.3-0.1-0.6-0.4-0.8-0.7c-0.2-0.3-0.3-0.7-0.3-1c0-0.5,0.2-0.9,0.5-1.3C98.9,0.2,99.3,0,99.8,0
			c0.4,0,0.7,0.1,1,0.3C101.1,0.5,101.4,0.8,101.5,1.1z"/>
		<path class="st1" d="M100.6,28.4c0.7,1,1,2.2,1,3.4c0,1.6-0.6,3.2-1.8,4.3c-1.2,1.1-2.7,1.8-4.3,1.8c-1.2,0-2.4-0.4-3.4-1
			c-1-0.7-1.8-1.6-2.3-2.7c-0.5-1.1-0.6-2.3-0.4-3.5c0.2-1.2,0.8-2.3,1.7-3.1c0.9-0.9,2-1.4,3.1-1.7c1.2-0.2,2.4-0.1,3.5,0.3
			C99,26.6,99.9,27.4,100.6,28.4z M98.6,33.8c0.4-0.6,0.6-1.3,0.6-2c0-1-0.4-1.9-1.1-2.6c-0.7-0.7-1.6-1.1-2.6-1.1
			c-0.7,0-1.4,0.2-2,0.6c-0.6,0.4-1.1,1-1.4,1.6c-0.3,0.7-0.3,1.4-0.2,2.1c0.1,0.7,0.5,1.4,1,1.9c0.5,0.5,1.2,0.9,1.9,1
			c0.7,0.1,1.4,0.1,2.1-0.2C97.6,34.9,98.2,34.4,98.6,33.8z"/>
		<path class="st1" d="M84.2,92.6c0.3,0.7,0.3,1.4,0.2,2.1c-0.1,0.7-0.5,1.4-1,1.9c-0.5,0.5-1.2,0.9-1.9,1c-0.7,0.1-1.5,0.1-2.1-0.2
			c-0.7-0.3-1.2-0.7-1.7-1.3c-0.4-0.6-0.6-1.3-0.6-2c0-1,0.4-1.9,1.1-2.6c0.7-0.7,1.6-1.1,2.6-1.1c0.7,0,1.4,0.2,2,0.6
			C83.5,91.4,83.9,91.9,84.2,92.6z M82,94.5c0.1-0.2,0.1-0.5,0.1-0.7c0-0.2-0.2-0.5-0.3-0.6c-0.2-0.2-0.4-0.3-0.6-0.3
			c-0.2,0-0.5,0-0.7,0.1c-0.2,0.1-0.4,0.2-0.5,0.4c-0.1,0.2-0.2,0.4-0.2,0.7c0,0.3,0.1,0.6,0.4,0.9c0.2,0.2,0.5,0.4,0.9,0.4
			c0.2,0,0.5-0.1,0.7-0.2C81.7,94.9,81.9,94.7,82,94.5z"/>
		<polygon class="st1" points="78.2,55 83.8,65.9 60,65.9 60,55 		"/>
		<path class="st1" d="M80.7,26.8c0.1,0.3,0.2,0.7,0.1,1.1c-0.1,0.4-0.2,0.7-0.5,0.9c-0.2,0.2-0.6,0.4-0.9,0.5
			c-0.3,0.1-0.7,0-1.1-0.1c-0.3-0.1-0.6-0.4-0.8-0.7c-0.2-0.3-0.3-0.7-0.3-1c0-0.5,0.2-1,0.5-1.3c0.3-0.3,0.8-0.5,1.3-0.5
			c0.4,0,0.7,0.1,1,0.3C80.3,26.2,80.6,26.4,80.7,26.8z"/>
		<rect x="53.6" y="35.4" class="st1" width="12.2" height="6.1"/>
		<path class="st1" d="M64.8,1.1c0.1,0.3,0.2,0.7,0.1,1.1c-0.1,0.3-0.2,0.7-0.5,0.9c-0.2,0.2-0.6,0.4-0.9,0.5
			c-0.3,0.1-0.7,0-1.1-0.1c-0.3-0.1-0.6-0.4-0.8-0.7c-0.2-0.3-0.3-0.7-0.3-1c0-0.5,0.2-0.9,0.5-1.3C62.1,0.2,62.6,0,63.1,0
			c0.4,0,0.7,0.1,1,0.3C64.4,0.5,64.6,0.8,64.8,1.1z"/>
		<path class="st1" d="M63,78.5c0.2,0.2,0.3,0.5,0.3,0.8c0,0.3-0.1,0.6-0.3,0.8c-0.2,0.2-0.5,0.4-0.8,0.4h-4.9
			c-0.3,0-0.6-0.2-0.8-0.4c-0.2-0.2-0.3-0.5-0.3-0.8c0-0.3,0.1-0.6,0.3-0.8c0.2-0.2,0.5-0.4,0.8-0.4h4.9
			C62.5,78.2,62.8,78.3,63,78.5z"/>
		<rect x="36.7" y="55" class="st1" width="20.8" height="11"/>
		<path class="st1" d="M53.6,25.6V33h-1.2c-0.2,0-0.3,0-0.5,0.1c-0.2,0.1-0.3,0.2-0.4,0.3c-0.1,0.1-0.2,0.2-0.3,0.4
			c-0.1,0.2-0.1,0.3-0.1,0.5v7.3h-6.1v-7.3c0-0.3-0.1-0.6-0.4-0.9S44.2,33,43.8,33h-8.6v-7.3H53.6z"/>
		<polygon class="st1" points="42.6,35.4 42.6,41.5 24.2,41.5 24.3,35.4 		"/>
		<path class="st1" d="M34.3,55v11H14.4c-0.2,0-0.4-0.1-0.6-0.2c-0.2-0.1-0.3-0.2-0.5-0.4c-0.1-0.2-0.2-0.4-0.2-0.6
			c0-0.2,0-0.4,0.1-0.6l1-2.7c0.7-1.9,2-3.6,3.7-4.8c1.7-1.2,3.7-1.8,5.8-1.8L34.3,55z"/>
		<path class="st1" d="M32.8,92.6c0.3,0.7,0.3,1.4,0.2,2.1s-0.5,1.4-1,1.9c-0.5,0.5-1.2,0.9-1.9,1c-0.7,0.1-1.5,0.1-2.1-0.2
			c-0.7-0.3-1.2-0.8-1.6-1.3c-0.4-0.6-0.6-1.3-0.6-2c0-1,0.4-1.9,1.1-2.6c0.7-0.7,1.6-1.1,2.6-1.1c0.7,0,1.4,0.2,2.1,0.6
			C32,91.4,32.5,91.9,32.8,92.6z M30.5,94.5c0.1-0.2,0.1-0.5,0.1-0.7c0-0.2-0.2-0.5-0.3-0.6s-0.4-0.3-0.6-0.3c-0.2,0-0.5,0-0.7,0.1
			c-0.2,0.1-0.4,0.2-0.6,0.4c-0.1,0.2-0.2,0.4-0.2,0.7c0,0.3,0.1,0.6,0.4,0.9c0.2,0.2,0.5,0.4,0.9,0.4c0.2,0,0.5-0.1,0.7-0.2
			C30.3,94.9,30.4,94.7,30.5,94.5z"/>
		<path class="st1" d="M28,4.8c0.1,0.3,0.2,0.7,0.1,1.1c-0.1,0.4-0.2,0.7-0.5,0.9c-0.2,0.3-0.6,0.4-0.9,0.5c-0.4,0.1-0.7,0-1.1-0.1
			c-0.3-0.1-0.6-0.4-0.8-0.7c-0.2-0.3-0.3-0.7-0.3-1c0-0.5,0.2-1,0.5-1.3c0.3-0.3,0.8-0.5,1.3-0.5c0.4,0,0.7,0.1,1,0.3
			C27.7,4.2,27.9,4.5,28,4.8z"/>
		<path class="st1" d="M17.1,17.1c0,2.3-0.9,4.4-2.5,6c-1.6,1.6-3.8,2.5-6.1,2.5c-1.7,0-3.3-0.5-4.8-1.4s-2.5-2.3-3.2-3.8
			s-0.8-3.3-0.5-4.9c0.3-1.7,1.1-3.2,2.3-4.4c1.2-1.2,2.7-2,4.4-2.3c1.7-0.3,3.4-0.2,5,0.5c1.6,0.7,2.9,1.8,3.8,3.2
			C16.6,13.8,17.1,15.4,17.1,17.1z M13.7,20.5c0.7-1,1-2.2,1-3.4c0-1.6-0.6-3.2-1.8-4.3c-1.1-1.1-2.7-1.8-4.3-1.8
			c-1.2,0-2.4,0.4-3.4,1c-1,0.7-1.8,1.6-2.3,2.7c-0.5,1.1-0.6,2.3-0.3,3.5c0.2,1.2,0.8,2.3,1.7,3.1c0.9,0.9,2,1.4,3.1,1.7
			c1.2,0.2,2.4,0.1,3.5-0.3C12,22.3,13,21.5,13.7,20.5z"/>
		<path class="st1" d="M6,41.4c0.1,0.3,0.2,0.7,0.1,1.1c-0.1,0.3-0.2,0.7-0.5,0.9c-0.3,0.2-0.6,0.4-0.9,0.5c-0.4,0.1-0.7,0-1.1-0.1
			c-0.3-0.1-0.6-0.4-0.8-0.7s-0.3-0.7-0.3-1c0-0.5,0.2-1,0.5-1.3c0.3-0.3,0.8-0.5,1.3-0.5c0.4,0,0.7,0.1,1,0.3
			C5.6,40.8,5.8,41.1,6,41.4z"/>
	</g>
	<g>
	</g>
</g>
</svg>
