<?xml version="1.0" encoding="utf-8"?>
<!-- Generator: Adobe Illustrator 28.0.0, SVG Export Plug-In . SVG Version: 6.00 Build 0)  -->
<svg version="1.1" id="Layer_1" xmlns="http://www.w3.org/2000/svg" xmlns:xlink="http://www.w3.org/1999/xlink" x="0px" y="0px"
	 viewBox="0 0 102 103" style="enable-background:new 0 0 102 103;" xml:space="preserve">
<style type="text/css">
	.st0{fill:#202A3E;}
	.st1{fill:#FF9933;}
</style>
<g>
	<g>
		<path class="st0" d="M97.6,52.3H76.2v-3.8c0-0.7-0.3-1.3-0.8-1.8c-0.5-0.5-1.1-0.8-1.8-0.8H56.4c-0.7,0-1.3,0.3-1.8,0.8
			c-0.5,0.5-0.7,1.1-0.8,1.8v3.8H51V38.2c0-1.3-0.5-2.6-1.5-3.5c-0.9-0.9-2.2-1.5-3.5-1.5h-6.1V6c0-0.8-0.3-1.6-0.9-2.1
			C38.5,3.4,37.7,3,36.9,3h-2.3V2.4c0-0.6-0.2-1.2-0.7-1.7c-0.4-0.4-1-0.7-1.7-0.7H20.6c-0.6,0-1.2,0.2-1.7,0.7
			c-0.4,0.4-0.7,1-0.7,1.7V3h-2.3c-0.8,0-1.6,0.3-2.1,0.9c-0.6,0.6-0.9,1.3-0.9,2.1v27.2H5c-1.3,0-2.6,0.5-3.5,1.5
			C0.5,35.6,0,36.9,0,38.2v15.6c0,0.4,0.2,0.8,0.4,1.1c0.3,0.3,0.7,0.4,1.1,0.4s0.8-0.2,1.1-0.4S3,54.2,3,53.8V38.2
			c0-0.5,0.2-1,0.6-1.4C4,36.5,4.5,36.2,5,36.2H46c0.5,0,1,0.2,1.4,0.6c0.4,0.4,0.6,0.9,0.6,1.4V91c0,0.5-0.2,1-0.6,1.4
			C47.1,92.8,46.6,93,46,93H5c-0.5,0-1-0.2-1.4-0.6C3.2,92,3,91.5,3,91V59.8c0-0.4-0.2-0.8-0.4-1.1c-0.3-0.3-0.7-0.4-1.1-0.4
			c-0.4,0-0.8,0.2-1.1,0.4C0.2,59,0,59.4,0,59.8V91c0,1.3,0.5,2.6,1.5,3.5C2.4,95.5,3.7,96,5,96h3.1v5.5c0,0.4,0.2,0.8,0.5,1
			c0.3,0.3,0.7,0.4,1,0.4c0.4,0,0.8-0.2,1-0.4c0.3-0.3,0.4-0.6,0.5-1V96h17v2.6c0,1.2,0.5,2.3,1.3,3.1c0.8,0.8,1.9,1.3,3.1,1.3h65.2
			c1.2,0,2.3-0.5,3.1-1.3c0.8-0.8,1.3-1.9,1.3-3.1v-42c0-1.2-0.5-2.3-1.3-3.1C99.9,52.7,98.8,52.3,97.6,52.3z M21.3,3h10.4v3H21.3V3
			z M15.9,6.1h2.3v0.7c0,0.6,0.2,1.2,0.7,1.7c0.4,0.4,1,0.7,1.7,0.7h11.7c0.6,0,1.2-0.2,1.7-0.7c0.4-0.4,0.7-1,0.7-1.7V6.1h2.3v27.2
			h-21V6.1z M86.7,55.3v44.5h-3V55.3H86.7z M51,91V55.3h14c0.2,0,0.4,0,0.6-0.1c0.2-0.1,0.4-0.2,0.5-0.3c0.1-0.1,0.3-0.3,0.3-0.5
			c0.1-0.2,0.1-0.4,0.1-0.6c0-0.2,0-0.4-0.1-0.6c-0.1-0.2-0.2-0.4-0.3-0.5c-0.1-0.1-0.3-0.3-0.5-0.3c-0.2-0.1-0.4-0.1-0.6-0.1h-8.2
			v-3.3h16.4v3.3h-2.1c-0.2,0-0.4,0-0.6,0.1c-0.2,0.1-0.4,0.2-0.5,0.3c-0.1,0.1-0.3,0.3-0.3,0.5c-0.1,0.2-0.1,0.4-0.1,0.6
			c0,0.2,0,0.4,0.1,0.6c0.1,0.2,0.2,0.4,0.3,0.5c0.1,0.1,0.3,0.3,0.5,0.3c0.2,0.1,0.4,0.1,0.6,0.1h9.6V100H43v-4h3.1
			c1.3,0,2.6-0.5,3.5-1.5C50.5,93.6,51,92.3,51,91L51,91z M31.1,98.6V96h8.9v4h-7.5c-0.4,0-0.7-0.1-1-0.4
			C31.2,99.3,31.1,99,31.1,98.6L31.1,98.6z M99,98.6c0,0.4-0.1,0.7-0.4,1c-0.3,0.3-0.6,0.4-1,0.4h-7.9V55.3h7.9c0.4,0,0.7,0.1,1,0.4
			c0.3,0.3,0.4,0.6,0.4,1L99,98.6z"/>
		<path class="st1" d="M57.9,88.7h11.2c0.9,0,1.8-0.4,2.4-1c0.6-0.6,1-1.5,1-2.4v-4.4c0-0.9-0.4-1.8-1-2.4c-0.6-0.6-1.5-1-2.4-1
			H57.9c-0.9,0-1.8,0.4-2.4,1c-0.6,0.6-1,1.5-1,2.4v4.4c0,0.9,0.4,1.8,1,2.4S57,88.7,57.9,88.7z M57.6,80.9c0-0.1,0-0.2,0.1-0.3
			c0.1-0.1,0.2-0.1,0.3-0.1h11.2c0,0,0.1,0,0.1,0c0,0,0.1,0,0.1,0.1c0,0,0.1,0.1,0.1,0.1c0,0,0,0.1,0,0.1v4.4c0,0,0,0.1,0,0.1
			s0,0.1-0.1,0.1c0,0-0.1,0.1-0.1,0.1c0,0-0.1,0-0.1,0H57.9c-0.1,0-0.2,0-0.3-0.1c-0.1-0.1-0.1-0.2-0.1-0.3V80.9z"/>
		<path class="st1" d="M12.8,85.2V44.1c0-0.4-0.2-0.8-0.4-1.1c-0.3-0.3-0.7-0.4-1.1-0.4c-0.4,0-0.8,0.2-1.1,0.4
			c-0.3,0.3-0.4,0.7-0.4,1.1v41.1c0,0.4,0.2,0.8,0.4,1.1c0.3,0.3,0.7,0.4,1.1,0.4c0.4,0,0.8-0.2,1.1-0.4
			C12.7,86,12.8,85.6,12.8,85.2L12.8,85.2z"/>
		<path class="st1" d="M22.3,85.2V44.1c0-0.4-0.2-0.8-0.4-1.1c-0.3-0.3-0.7-0.4-1.1-0.4S20,42.7,19.7,43c-0.3,0.3-0.4,0.7-0.4,1.1
			v41.1c0,0.4,0.2,0.8,0.4,1.1c0.3,0.3,0.7,0.4,1.1,0.4s0.8-0.2,1.1-0.4C22.1,86,22.3,85.6,22.3,85.2L22.3,85.2z"/>
		<path class="st1" d="M31.8,85.2V44.1c0-0.4-0.2-0.8-0.4-1.1c-0.3-0.3-0.7-0.4-1.1-0.4s-0.8,0.2-1.1,0.4c-0.3,0.3-0.4,0.7-0.4,1.1
			v41.1c0,0.4,0.2,0.8,0.4,1.1c0.3,0.3,0.7,0.4,1.1,0.4s0.8-0.2,1.1-0.4C31.6,86,31.8,85.6,31.8,85.2L31.8,85.2z"/>
		<path class="st1" d="M41.2,85.2V44.1c0-0.2,0-0.4-0.1-0.6c-0.1-0.2-0.2-0.4-0.3-0.5c-0.1-0.1-0.3-0.3-0.5-0.3
			c-0.2-0.1-0.4-0.1-0.6-0.1c-0.2,0-0.4,0-0.6,0.1c-0.2,0.1-0.4,0.2-0.5,0.3c-0.1,0.1-0.3,0.3-0.3,0.5c-0.1,0.2-0.1,0.4-0.1,0.6
			v41.1c0,0.2,0,0.4,0.1,0.6c0.1,0.2,0.2,0.4,0.3,0.5c0.1,0.1,0.3,0.3,0.5,0.3c0.2,0.1,0.4,0.1,0.6,0.1c0.2,0,0.4,0,0.6-0.1
			c0.2-0.1,0.4-0.2,0.5-0.3c0.1-0.1,0.3-0.3,0.3-0.5C41.2,85.6,41.3,85.4,41.2,85.2L41.2,85.2z"/>
	</g>
</g>
</svg>
