<?xml version="1.0" encoding="utf-8"?>
<!-- Generator: Adobe Illustrator 28.0.0, SVG Export Plug-In . SVG Version: 6.00 Build 0)  -->
<svg version="1.1" id="Layer_1" xmlns="http://www.w3.org/2000/svg" xmlns:xlink="http://www.w3.org/1999/xlink" x="0px" y="0px"
	 viewBox="0 0 107 106" style="enable-background:new 0 0 107 106;" xml:space="preserve">
<style type="text/css">
	.st0{fill:#202A3E;}
	.st1{fill:#FF9933;}
</style>
<g>
	<g>
		<path class="st0" d="M106.1,13L93.5,0.9C93,0.5,92.5,0,91.6,0H41c-0.7,0-1.4,0.3-1.9,0.8c-0.5,0.5-0.8,1.2-0.8,1.9v8.2L20.5,14
			c-0.7,0.1-1.3,0.5-1.7,1.1c-0.4,0.6-0.6,1.3-0.4,2l0.9,5.3c-5.8,2-11.7,4-17.5,6c-0.7,0.2-1.2,0.7-1.5,1.4c-0.3,0.6-0.3,1.4-0.1,2
			l11.4,31.8c0.1,0.3,0.3,0.6,0.6,0.8c0.3,0.2,0.6,0.3,0.9,0.3c0.2,0,0.4,0,0.5-0.1c0.2-0.1,0.4-0.2,0.5-0.3
			c0.2-0.1,0.3-0.3,0.4-0.5c0.1-0.2,0.1-0.4,0.1-0.6c0-0.2,0-0.4-0.1-0.6L3.3,31.1c5.4-2,11-3.8,16.5-5.7l5.4,31.4L31.4,93
			c0.1,0.6,0.4,1.2,0.9,1.6c0.5,0.4,1.1,0.6,1.7,0.6c0.1,0,0.3,0,0.4,0l16.8-2.9L64.3,90l-19.7,7.1L29,102.7L16.9,69.1
			c-0.1-0.2-0.2-0.4-0.3-0.5c-0.1-0.2-0.3-0.3-0.5-0.4c-0.2-0.1-0.4-0.1-0.6-0.1c-0.2,0-0.4,0-0.6,0.1c-0.2,0.1-0.4,0.2-0.5,0.3
			c-0.2,0.1-0.3,0.3-0.4,0.5c-0.1,0.2-0.1,0.4-0.1,0.6c0,0.2,0,0.4,0.1,0.6l12.3,34.1c0.1,0.3,0.3,0.6,0.5,0.9
			c0.2,0.3,0.5,0.5,0.8,0.6c0.3,0.1,0.7,0.2,1,0.2c0.3,0,0.7,0,1-0.2l16-5.8L82,87l7-1.2h15.4c0.7,0,1.4-0.3,1.9-0.8
			c0.5-0.5,0.8-1.2,0.8-1.9V14.8C107,13.8,106.5,13.3,106.1,13L106.1,13z M102,13.4h-8c-0.4,0-1.3,0-1.5-0.2
			c-0.1-0.2-0.1-0.4-0.1-0.5l0-8.5L102,13.4z M103.9,82.7H41.4V52.1c0-0.4-0.2-0.8-0.5-1.1c-0.3-0.3-0.7-0.4-1.1-0.4
			c-0.4,0-0.8,0.2-1.1,0.4c-0.3,0.3-0.5,0.7-0.5,1.1v31c0,0.7,0.3,1.4,0.8,1.9c0.5,0.5,1.2,0.8,1.9,0.8h29.4l-19.8,3.4L34.4,92
			l-6.1-35.7L21.5,17l16.8-2.9v30.7c0,0.2,0,0.4,0.1,0.6c0.1,0.2,0.2,0.4,0.3,0.5c0.1,0.2,0.3,0.3,0.5,0.4c0.2,0.1,0.4,0.1,0.6,0.1
			c0.2,0,0.4,0,0.6-0.1c0.2-0.1,0.4-0.2,0.5-0.4c0.1-0.2,0.3-0.3,0.3-0.5c0.1-0.2,0.1-0.4,0.1-0.6V3.1h47.7l0,9.5
			c0,0.5,0.1,1,0.2,1.5c0.2,0.5,0.5,0.9,0.8,1.3c1.1,1.1,2.6,1.1,3.5,1.1h10.1L103.9,82.7z"/>
		<path class="st1" d="M49,24.3c0,0.4,0.2,0.8,0.5,1.1c0.3,0.3,0.7,0.5,1.1,0.5h44.8c0.2,0,0.4,0,0.6-0.1s0.4-0.2,0.5-0.3
			c0.2-0.1,0.3-0.3,0.4-0.5s0.1-0.4,0.1-0.6c0-0.2,0-0.4-0.1-0.6s-0.2-0.4-0.4-0.5c-0.2-0.1-0.3-0.3-0.5-0.3s-0.4-0.1-0.6-0.1H50.6
			c-0.4,0-0.8,0.2-1.1,0.5C49.2,23.5,49,23.9,49,24.3z"/>
		<path class="st1" d="M95.4,33.9H50.6c-0.2,0-0.4,0-0.6,0.1c-0.2,0.1-0.4,0.2-0.5,0.3c-0.2,0.1-0.3,0.3-0.4,0.5
			c-0.1,0.2-0.1,0.4-0.1,0.6c0,0.2,0,0.4,0.1,0.6c0.1,0.2,0.2,0.4,0.4,0.5c0.2,0.1,0.3,0.3,0.5,0.3c0.2,0.1,0.4,0.1,0.6,0.1h44.8
			c0.2,0,0.4,0,0.6-0.1c0.2-0.1,0.4-0.2,0.5-0.3c0.2-0.1,0.3-0.3,0.4-0.5c0.1-0.2,0.1-0.4,0.1-0.6c0-0.2,0-0.4-0.1-0.6
			c-0.1-0.2-0.2-0.4-0.4-0.5c-0.2-0.1-0.3-0.3-0.5-0.3C95.8,33.9,95.6,33.9,95.4,33.9z"/>
		<path class="st1" d="M95.4,45.1H50.6c-0.2,0-0.4,0-0.6,0.1c-0.2,0.1-0.4,0.2-0.5,0.3c-0.2,0.1-0.3,0.3-0.4,0.5
			c-0.1,0.2-0.1,0.4-0.1,0.6c0,0.2,0,0.4,0.1,0.6s0.2,0.4,0.4,0.5c0.2,0.1,0.3,0.3,0.5,0.3c0.2,0.1,0.4,0.1,0.6,0.1h44.8
			c0.2,0,0.4,0,0.6-0.1c0.2-0.1,0.4-0.2,0.5-0.3c0.2-0.1,0.3-0.3,0.4-0.5s0.1-0.4,0.1-0.6c0-0.2,0-0.4-0.1-0.6
			c-0.1-0.2-0.2-0.4-0.4-0.5c-0.2-0.1-0.3-0.3-0.5-0.3S95.6,45,95.4,45.1z"/>
		<path class="st1" d="M95.4,56.2H50.6c-0.2,0-0.4,0-0.6,0.1c-0.2,0.1-0.4,0.2-0.5,0.3c-0.2,0.1-0.3,0.3-0.4,0.5
			c-0.1,0.2-0.1,0.4-0.1,0.6c0,0.2,0,0.4,0.1,0.6c0.1,0.2,0.2,0.4,0.4,0.5c0.2,0.1,0.3,0.3,0.5,0.3c0.2,0.1,0.4,0.1,0.6,0.1h44.8
			c0.2,0,0.4,0,0.6-0.1c0.2-0.1,0.4-0.2,0.5-0.3c0.2-0.1,0.3-0.3,0.4-0.5C97,58.2,97,58,97,57.8c0-0.2,0-0.4-0.1-0.6
			c-0.1-0.2-0.2-0.4-0.4-0.5c-0.2-0.1-0.3-0.3-0.5-0.3C95.8,56.2,95.6,56.2,95.4,56.2z"/>
		<path class="st1" d="M95.4,67.3H50.6c-0.2,0-0.4,0-0.6,0.1c-0.2,0.1-0.4,0.2-0.5,0.3c-0.2,0.1-0.3,0.3-0.4,0.5
			c-0.1,0.2-0.1,0.4-0.1,0.6c0,0.2,0,0.4,0.1,0.6c0.1,0.2,0.2,0.4,0.4,0.5c0.2,0.1,0.3,0.3,0.5,0.3c0.2,0.1,0.4,0.1,0.6,0.1h44.8
			c0.2,0,0.4,0,0.6-0.1c0.2-0.1,0.4-0.2,0.5-0.3c0.2-0.1,0.3-0.3,0.4-0.5c0.1-0.2,0.1-0.4,0.1-0.6c0-0.2,0-0.4-0.1-0.6
			c-0.1-0.2-0.2-0.4-0.4-0.5c-0.2-0.1-0.3-0.3-0.5-0.3S95.6,67.3,95.4,67.3z"/>
	</g>
</g>
</svg>
