<?xml version="1.0" encoding="utf-8"?>
<!-- Generator: Adobe Illustrator 28.4.1, SVG Export Plug-In . SVG Version: 6.00 Build 0)  -->
<svg version="1.1" id="Layer_1" xmlns="http://www.w3.org/2000/svg" xmlns:xlink="http://www.w3.org/1999/xlink" x="0px" y="0px"
	width="36" height="53.8" viewBox="0 0 36 53.8" style="enable-background:new 0 0 36 53.8;" xml:space="preserve">
<style type="text/css">
	.st0{clip-path:url(#SVGID_00000055673896155629052890000005846318826533340305_);fill:#FF9933;}
	.st1{clip-path:url(#SVGID_00000106869634474231305840000008068828941795578773_);}
	.st2{fill:#FF9933;}
	.st3{fill:#202A3E;}
</style>
<g>
	<g>
		<defs>
			<polyline id="SVGID_1_" points="35.7,53.7 0,53.7 0,0 35.7,0"/>
		</defs>
		<clipPath id="SVGID_00000126297103150837498860000009881849081941119402_">
			<use xlink:href="#SVGID_1_"  style="overflow:visible;"/>
		</clipPath>
		<path style="clip-path:url(#SVGID_00000126297103150837498860000009881849081941119402_);fill:#FF9933;" d="M24.2,39.5L24.2,39.5
			h-2.4c0,0.7-0.3,1.5-0.9,1.9h1.8c6.7,0.7,10.9,3.1,10.9,4.9c0,2.5-6.7,5.2-15.8,5.2S2.1,48.8,2.1,46.4c0-1.8,4-4.2,10.9-4.9h0.9
			c-0.1-0.1-0.4-0.3-0.6-0.6l-0.3-0.6c0-0.3-0.1-0.4,0-0.7h-1.5c-7,1-11.4,3.6-11.4,6.8c0,2.1,1.9,4,5.6,5.5
			c3.3,1.2,7.6,1.9,12.2,1.9s8.9-0.7,12.2-1.9c3.6-1.3,5.6-3.3,5.6-5.5C35.7,43.1,31.2,40.6,24.2,39.5z"/>
	</g>
	<g>
		<defs>
			<polyline id="SVGID_00000092432937461636153070000004942311861447879856_" points="35.7,53.7 0,53.7 0,0 35.7,0 			"/>
		</defs>
		<clipPath id="SVGID_00000112618100890096699910000015295220677620766099_">
			<use xlink:href="#SVGID_00000092432937461636153070000004942311861447879856_"  style="overflow:visible;"/>
		</clipPath>
		<g style="clip-path:url(#SVGID_00000112618100890096699910000015295220677620766099_);">
			<path class="st2" d="M18,4.2c-0.1,0-0.4,0-0.6,0.1c-0.1,0.1-0.3,0.3-0.4,0.4c-0.1,0.1-0.1,0.4,0,0.6c0.1,0.1,0.1,0.4,0.3,0.6
				c0.1,0.1,0.3,0.3,0.6,0.3c0.1,0,0.4,0,0.6,0c0.1-0.1,0.3-0.1,0.4-0.4C19,5.6,19,5.4,19,5.2c0-0.1,0-0.3-0.1-0.4
				c0-0.1-0.1-0.3-0.3-0.3c-0.1-0.1-0.1-0.1-0.3-0.3C18.3,4.2,18.1,4.2,18,4.2z"/>
			<path class="st3" d="M17.8,10.6c-0.9,0-1.9,0.1-2.8,0.6c-0.9,0.3-1.6,0.7-2.4,1.5S11.4,14.1,11,15c-0.4,0.9-0.6,1.8-0.6,2.8
				s0.1,1.9,0.6,2.8c0.4,0.9,0.9,1.6,1.6,2.4c0.7,0.7,1.5,1.2,2.4,1.6s1.8,0.6,2.8,0.6l0,0c0.9,0,1.9-0.1,2.8-0.6
				c0.9-0.3,1.6-0.9,2.4-1.6c0.7-0.7,1.2-1.5,1.6-2.4c0.4-0.9,0.6-1.8,0.6-2.8c0-0.9-0.1-1.9-0.6-2.8c-0.3-0.9-0.9-1.6-1.6-2.4
				c-0.7-0.7-1.5-1.2-2.4-1.6C19.8,10.7,18.9,10.6,17.8,10.6z M17.8,23L17.8,23c-1.3,0-2.7-0.6-3.7-1.6c-0.9-1-1.5-2.2-1.5-3.7
				c0-1.3,0.6-2.7,1.5-3.7s2.2-1.5,3.6-1.6l0,0c1.3,0,2.7,0.6,3.7,1.5c1,1,1.5,2.4,1.5,3.7s-0.6,2.7-1.5,3.7
				C20.5,22.6,19.2,23,17.8,23z"/>
			<path class="st2" d="M22.4,5.1c-0.3-0.1-0.6,0-0.7,0c-0.3,0.1-0.4,0.3-0.6,0.6c-0.1,0.3-0.1,0.6,0,0.7c0.1,0.3,0.3,0.4,0.6,0.6
				c2.2,0.7,4.2,2.2,5.6,4.3c1.3,1.9,2.1,4.3,2.1,6.7c0,0.1,0,0.3,0.1,0.4c0,0.1,0.1,0.3,0.3,0.3c0.1,0.1,0.1,0.1,0.3,0.3
				c0.1,0,0.3,0.1,0.4,0.1l0,0c0.3,0,0.6-0.1,0.7-0.3s0.3-0.4,0.3-0.7c0-2.8-0.9-5.6-2.5-7.9C27.4,7.7,25.1,5.9,22.4,5.1L22.4,5.1z"
				/>
			<path class="st3" d="M2.1,17.7c0-2.1,0.4-4.2,1.2-5.9C4,9.8,5.2,8.2,6.7,6.7s3.3-2.5,5.2-3.4s4-1.2,6.1-1.2s4.2,0.4,5.9,1.2
				C25.9,4,27.5,5.2,29,6.7c1.5,1.5,2.5,3.3,3.4,5.2c0.7,1.9,1.2,4,1.2,6.1c0,7.4-4.6,12-12,21.7c-1.3,1.8-2.5,3.3-3.7,4.9
				c-1.2-1.6-2.4-3.1-3.7-4.9C6.5,29.6,2.1,25.4,2.1,17.7L2.1,17.7z M12.9,41.5c1.5,1.9,2.8,3.7,4.2,5.5c0.1,0.1,0.3,0.3,0.4,0.3
				c0.1,0.1,0.3,0.1,0.4,0.1s0.3,0,0.4-0.1c0.1-0.1,0.3-0.1,0.4-0.3c1.3-1.8,2.7-3.6,4.2-5.5l1.5-1.9l0,0c7-8.9,11.3-13.7,11.4-21.6
				C35.7,8,27.6,0,17.8,0C13.1,0,8.6,1.9,5.4,5.2C1.9,8.5,0,12.9,0,17.7c0,8,4.3,12.8,11.4,21.9L12.9,41.5z"/>
		</g>
	</g>
</g>
</svg>
