<?xml version="1.0" encoding="utf-8"?>
<!-- Generator: Adobe Illustrator 28.0.0, SVG Export Plug-In . SVG Version: 6.00 Build 0)  -->
<svg version="1.1" id="Layer_1" xmlns="http://www.w3.org/2000/svg" xmlns:xlink="http://www.w3.org/1999/xlink" x="0px" y="0px"
	 width="30px" height="30px" style="enable-background:new 0 0 30 30;" xml:space="preserve">
<style type="text/css">
	.st0{clip-path:url(#SVGID_00000150061794764694143000000010746647686451552676_);}
	.st1{fill:#FF9933;}
	.st2{fill:#202A3E;}
</style>
<g>
	<defs>
		<rect id="SVGID_1_" y="0" width="30" height="30"/>
	</defs>
	<clipPath id="SVGID_00000093138507777474824410000001067663597133069982_">
		<use xlink:href="#SVGID_1_"  style="overflow:visible;"/>
	</clipPath>
	<g style="clip-path:url(#SVGID_00000093138507777474824410000001067663597133069982_);">
		<path class="st1" d="M17.1,0c-0.2,0-0.3,0.1-0.4,0.2c-0.1,0.1-0.2,0.3-0.2,0.4c0,0.2,0.1,0.3,0.2,0.4c0.1,0.1,0.3,0.2,0.4,0.2
			c6.5,0,11.8,5.3,11.8,11.8c0,0.2,0.1,0.3,0.2,0.4c0.1,0.1,0.3,0.2,0.4,0.2s0.3-0.1,0.4-0.2c0.1-0.1,0.2-0.3,0.2-0.4
			C30,5.8,24.2,0,17.1,0z"/>
		<path class="st1" d="M25.9,13.5c0.2,0,0.3-0.1,0.4-0.2c0.1-0.1,0.2-0.3,0.2-0.4c0-5.2-4.2-9.4-9.4-9.4c-0.2,0-0.3,0.1-0.4,0.2
			c-0.1,0.1-0.2,0.3-0.2,0.4c0,0.2,0.1,0.3,0.2,0.4c0.1,0.1,0.3,0.2,0.4,0.2c4.5,0,8.2,3.7,8.2,8.2c0,0.2,0.1,0.3,0.2,0.4
			C25.6,13.4,25.7,13.5,25.9,13.5z"/>
		<path class="st1" d="M21.8,12.9c0,0.2,0.1,0.3,0.2,0.4c0.1,0.1,0.3,0.2,0.4,0.2s0.3-0.1,0.4-0.2c0.1-0.1,0.2-0.3,0.2-0.4
			c0-1.6-0.6-3-1.7-4.2c-1.1-1.1-2.6-1.7-4.2-1.7c-0.2,0-0.3,0.1-0.4,0.2c-0.1,0.1-0.2,0.3-0.2,0.4c0,0.2,0.1,0.3,0.2,0.4
			c0.1,0.1,0.3,0.2,0.4,0.2c1.2,0,2.4,0.5,3.3,1.4C21.3,10.5,21.8,11.7,21.8,12.9L21.8,12.9z"/>
		<path class="st1" d="M16.5,11.2c0,0.2,0.1,0.3,0.2,0.4c0.1,0.1,0.3,0.2,0.4,0.2c0.3,0,0.6,0.1,0.8,0.3c0.2,0.2,0.3,0.5,0.3,0.8
			c0,0.2,0.1,0.3,0.2,0.4c0.1,0.1,0.3,0.2,0.4,0.2c0.2,0,0.3-0.1,0.4-0.2c0.1-0.1,0.2-0.3,0.2-0.4c0-0.6-0.2-1.2-0.7-1.7
			c-0.4-0.4-1-0.7-1.7-0.7c-0.2,0-0.3,0.1-0.4,0.2C16.6,10.9,16.5,11,16.5,11.2z"/>
		<path class="st1" d="M11,19c0,0.1,0,0.2-0.1,0.3c-0.1,0.1-0.2,0.2-0.3,0.2c-0.1,0-0.2,0.1-0.3,0c-0.1,0-0.2-0.1-0.3-0.2
			c-0.1-0.1-0.1-0.2-0.2-0.3c0-0.1,0-0.2,0-0.3c0-0.1,0.1-0.2,0.2-0.3c0.1-0.1,0.2-0.1,0.3-0.1c0.2,0,0.3,0.1,0.4,0.2
			C10.9,18.7,11,18.9,11,19z"/>
		<path class="st2" d="M16.1,29.3c1.3,0.6,2.8,0.8,4.2,0.6c1.4-0.2,2.8-0.9,3.8-2l1.2-1.2c0.2-0.2,0.3-0.3,0.4-0.5
			c0.1-0.2,0.1-0.4,0.1-0.6s0-0.4-0.1-0.6c-0.1-0.2-0.2-0.4-0.4-0.5l-4.7-4.7c-0.2-0.2-0.3-0.3-0.5-0.4c-0.2-0.1-0.4-0.1-0.6-0.1
			c-0.2,0-0.4,0-0.6,0.1c-0.2,0.1-0.4,0.2-0.5,0.4l-2,2c-0.4,0.4-1,0.5-1.4,0.2c-0.7-0.5-1.4-1-2.1-1.5c-0.1-0.1-0.3-0.1-0.4-0.1
			c-0.2,0-0.3,0.1-0.4,0.2c-0.1,0.1-0.1,0.3-0.1,0.4c0,0.2,0.1,0.3,0.2,0.4c0.7,0.6,1.4,1.1,2.2,1.6c0.9,0.6,2.1,0.4,2.9-0.3l2-2
			c0,0,0.1-0.1,0.2-0.1c0.1,0,0.1,0,0.2,0s0.1,0,0.2,0c0.1,0,0.1,0.1,0.2,0.1l4.7,4.7c0,0,0.1,0.1,0.1,0.2c0,0.1,0,0.1,0,0.2
			c0,0.1,0,0.1,0,0.2c0,0.1-0.1,0.1-0.1,0.2l-1.2,1.2c-0.9,0.9-2,1.4-3.1,1.6s-2.4,0-3.5-0.5C8.5,24.3,4,17.9,1.8,13.3
			c-1.1-2.2-0.6-4.9,1.1-6.6l1.2-1.2c0,0,0.1-0.1,0.2-0.1c0.1,0,0.1,0,0.2,0c0.1,0,0.1,0,0.2,0c0.1,0,0.1,0.1,0.2,0.1l4.7,4.7
			c0,0,0.1,0.1,0.1,0.2c0,0.1,0,0.1,0,0.2c0,0.1,0,0.1,0,0.2c0,0.1-0.1,0.1-0.1,0.2l-2,2c-0.8,0.8-0.9,2-0.3,2.9
			c0.3,0.5,0.7,1.1,1.1,1.6c0,0.1,0.1,0.1,0.2,0.2c0.1,0,0.1,0.1,0.2,0.1c0.1,0,0.2,0,0.2,0c0.1,0,0.1-0.1,0.2-0.1
			c0.1,0,0.1-0.1,0.2-0.2c0-0.1,0.1-0.1,0.1-0.2c0-0.1,0-0.2,0-0.2c0-0.1-0.1-0.1-0.1-0.2c-0.4-0.5-0.7-1-1-1.5
			c-0.3-0.4-0.2-1,0.2-1.4l2-2c0.2-0.2,0.3-0.3,0.4-0.5c0.1-0.2,0.1-0.4,0.1-0.6c0-0.2,0-0.4-0.1-0.6c-0.1-0.2-0.2-0.4-0.4-0.5
			L5.6,4.7C5.5,4.6,5.3,4.4,5.1,4.3C4.9,4.3,4.7,4.2,4.4,4.2c-0.2,0-0.4,0-0.6,0.1C3.6,4.4,3.4,4.6,3.2,4.7L2.1,5.9
			c-2.1,2.1-2.7,5.3-1.3,8C3.1,18.6,7.6,25.2,16.1,29.3L16.1,29.3z"/>
	</g>
</g>
</svg>
