<?xml version="1.0" encoding="utf-8"?>
<!-- Generator: Adobe Illustrator 28.0.0, SVG Export Plug-In . SVG Version: 6.00 Build 0)  -->
<svg version="1.1" id="Layer_1" xmlns="http://www.w3.org/2000/svg" xmlns:xlink="http://www.w3.org/1999/xlink" x="0px" y="0px"
	 width="32px" height="32px" viewBox="0 0 30 30" style="enable-background:new 0 0 30 30;" xml:space="preserve">
<style type="text/css">
	.st0{clip-path:url(#SVGID_00000025428128706190347880000016696111416876447156_);}
	.st1{fill:#202A3E;}
	.st2{fill:#FF9933;}
</style>
<g>
	<defs>
		<rect id="SVGID_1_" y="0" width="30" height="30"/>
	</defs>
	<clipPath id="SVGID_00000012453685209405149290000000386381707620239280_">
		<use xlink:href="#SVGID_1_"  style="overflow:visible;"/>
	</clipPath>
	<g style="clip-path:url(#SVGID_00000012453685209405149290000000386381707620239280_);">
		<path class="st1" d="M30,13.2c0-0.1,0-0.2-0.1-0.3c0,0-0.1-0.1-0.1-0.1l-2-1.8c0.2-0.2,0.4-0.4,0.5-0.7c0.1-0.3,0.2-0.5,0.2-0.8
			v-1c0-0.9-0.3-1.8-0.8-2.6c-0.5-0.8-1.2-1.4-2.1-1.7c-0.9-0.4-1.8-0.4-2.7-0.3c-0.9,0.2-1.7,0.6-2.4,1.3s-1.1,1.5-1.3,2.4
			c-0.2,0.9-0.1,1.9,0.3,2.7c0.4,0.9,1,1.6,1.7,2.1c0.8,0.5,1.7,0.8,2.6,0.8c0.2,0,0.3-0.1,0.4-0.2c0.1-0.1,0.2-0.3,0.2-0.4
			c0-0.2-0.1-0.3-0.2-0.4C24.1,12.1,24,12,23.8,12c-0.7,0-1.4-0.2-2-0.6s-1-0.9-1.3-1.6c-0.3-0.6-0.3-1.3-0.2-2
			c0.1-0.7,0.5-1.3,1-1.8c0.5-0.5,1.1-0.8,1.8-1c0.7-0.1,1.4-0.1,2,0.2c0.6,0.3,1.2,0.7,1.6,1.3c0.4,0.6,0.6,1.3,0.6,2v1
			c0,0.2-0.1,0.4-0.2,0.5c-0.1,0.1-0.3,0.2-0.5,0.2s-0.4-0.1-0.5-0.2c-0.1-0.1-0.2-0.3-0.2-0.5V7c0-0.1,0-0.2,0-0.2
			c0-0.1-0.1-0.1-0.1-0.2c-0.4-0.3-0.8-0.6-1.3-0.7c-0.5-0.1-1-0.1-1.5,0.1c-0.5,0.2-0.9,0.5-1.2,0.9c-0.3,0.4-0.5,0.9-0.6,1.4
			c-0.1,0.5,0,1,0.3,1.5c0.2,0.5,0.6,0.8,1,1.1c0.4,0.3,0.9,0.4,1.4,0.4c0.5,0,1-0.1,1.4-0.4c0.3,0.4,0.8,0.6,1.3,0.6
			c0,0.1,0.1,0.1,0.1,0.2l1.8,1.6l-4.7,3.4V15c0-0.2-0.1-0.3-0.2-0.4c-0.1-0.1-0.3-0.2-0.4-0.2c-0.2,0-0.3,0.1-0.4,0.2
			c-0.1,0.1-0.2,0.3-0.2,0.4v2.4l-4.4,3.2l-2.9-2.1c-0.1-0.1-0.2-0.1-0.3-0.1s-0.2,0-0.3,0.1l-2.9,2.1L1.5,13.1l3.3-2.9
			C4.9,10.2,5,10.1,5,10c0-0.1,0.1-0.1,0.1-0.2c0-0.1,0-0.2,0-0.2C5,9.5,5,9.4,4.9,9.4C4.9,9.3,4.8,9.3,4.8,9.2
			c-0.1,0-0.1-0.1-0.2-0.1c-0.1,0-0.2,0-0.2,0c-0.1,0-0.1,0.1-0.2,0.1l-3.9,3.4c-0.1,0.1-0.1,0.1-0.2,0.2C0,13,0,13.1,0,13.2v16.3
			c0,0.2,0.1,0.3,0.2,0.4C0.3,29.9,0.4,30,0.6,30h28.8c0.2,0,0.3-0.1,0.4-0.2c0.1-0.1,0.2-0.3,0.2-0.4L30,13.2L30,13.2z M24.7,9.8
			c-0.2,0.2-0.5,0.2-0.8,0.3c-0.3,0-0.6,0-0.8-0.2c-0.2-0.1-0.5-0.3-0.6-0.6c-0.1-0.2-0.2-0.5-0.2-0.8c0-0.3,0.1-0.5,0.2-0.8
			c0.1-0.2,0.3-0.4,0.6-0.6C23.3,7,23.6,7,23.9,7c0.3,0,0.5,0.1,0.8,0.3V9.8z M28.8,14.3v14l-9.6-7L28.8,14.3z M1.2,14.3l9.6,7
			l-9.6,7L1.2,14.3z M2.4,28.8L15,19.7l12.6,9.2H2.4z"/>
		<path class="st1" d="M6.8,13.4c0.2,0,0.3-0.1,0.4-0.2c0.1-0.1,0.2-0.3,0.2-0.4V5h12l0,0h0c0.1,0,0.2,0,0.3-0.1
			c0.1-0.1,0.2-0.2,0.2-0.3c0-0.1,0-0.2,0-0.3c0-0.1-0.1-0.2-0.2-0.3l-4.4-3.8C15.3,0,15.1,0,15,0S14.7,0,14.6,0.1L12.5,2
			c-0.1,0.1-0.2,0.2-0.2,0.4c0,0.2,0,0.3,0.1,0.4C12.5,2.9,12.7,3,12.8,3c0.2,0,0.3,0,0.4-0.1L15,1.4l2.8,2.4h-11
			C6.6,3.8,6.5,3.9,6.4,4C6.3,4.1,6.2,4.2,6.2,4.4v8.4c0,0.2,0.1,0.3,0.2,0.4C6.5,13.4,6.6,13.4,6.8,13.4z"/>
		<path class="st2" d="M9.2,10.9h5.9c0.2,0,0.3-0.1,0.4-0.2c0.1-0.1,0.2-0.3,0.2-0.4s-0.1-0.3-0.2-0.4c-0.1-0.1-0.3-0.2-0.4-0.2H9.2
			c-0.2,0-0.3,0.1-0.4,0.2c-0.1,0.1-0.2,0.3-0.2,0.4s0.1,0.3,0.2,0.4C8.9,10.8,9.1,10.9,9.2,10.9z"/>
		<path class="st2" d="M9.2,8H15c0.2,0,0.3-0.1,0.4-0.2c0.1-0.1,0.2-0.3,0.2-0.4c0-0.2-0.1-0.3-0.2-0.4c-0.1-0.1-0.3-0.2-0.4-0.2
			H9.2C9.1,6.8,8.9,6.9,8.8,7C8.7,7.1,8.6,7.2,8.6,7.4c0,0.2,0.1,0.3,0.2,0.4C8.9,7.9,9.1,8,9.2,8z"/>
		<path class="st2" d="M6.8,15.8c0.1,0,0.3,0,0.4-0.1c0.1-0.1,0.2-0.2,0.2-0.3c0-0.1,0-0.3-0.1-0.4c-0.1-0.1-0.2-0.2-0.3-0.3
			c-0.1-0.1-0.3-0.1-0.4,0c-0.1,0-0.2,0.1-0.3,0.2c-0.1,0.1-0.1,0.2-0.1,0.4c0,0.1,0.1,0.3,0.2,0.4c0.1,0.1,0.1,0.1,0.2,0.1
			C6.6,15.8,6.7,15.8,6.8,15.8z"/>
		<path class="st2" d="M19,13.8h-1.1c-0.2,0-0.3-0.1-0.4-0.2c-0.1-0.1-0.2-0.3-0.2-0.4c0-0.2,0.1-0.3,0.2-0.4
			c0.1-0.1,0.3-0.2,0.4-0.2H19c0.2,0,0.3,0.1,0.4,0.2c0.1,0.1,0.2,0.3,0.2,0.4c0,0.2-0.1,0.3-0.2,0.4C19.3,13.7,19.1,13.8,19,13.8z"
			/>
		<path class="st2" d="M15.2,13.8L15.2,13.8c-0.2,0-0.3-0.1-0.4-0.2c-0.1-0.1-0.2-0.3-0.2-0.4c0-0.2,0.1-0.3,0.2-0.4
			c0.1-0.1,0.3-0.2,0.4-0.2h0c0.2,0,0.3,0.1,0.4,0.2c0.1,0.1,0.2,0.3,0.2,0.4c0,0.2-0.1,0.3-0.2,0.4C15.5,13.7,15.4,13.8,15.2,13.8z
			"/>
		<path class="st2" d="M12.4,13.8H9.2c-0.2,0-0.3-0.1-0.4-0.2c-0.1-0.1-0.2-0.3-0.2-0.4c0-0.2,0.1-0.3,0.2-0.4
			c0.1-0.1,0.3-0.2,0.4-0.2h3.2c0.2,0,0.3,0.1,0.4,0.2c0.1,0.1,0.2,0.3,0.2,0.4c0,0.2-0.1,0.3-0.2,0.4
			C12.7,13.7,12.6,13.8,12.4,13.8z"/>
	</g>
</g>
</svg>
