<?xml version="1.0" encoding="utf-8"?>
<!-- Generator: Adobe Illustrator 28.0.0, SVG Export Plug-In . SVG Version: 6.00 Build 0)  -->
<svg version="1.1" id="Layer_1" xmlns="http://www.w3.org/2000/svg" xmlns:xlink="http://www.w3.org/1999/xlink" x="0px" y="0px"
	 viewBox="0 0 564 448" style="enable-background:new 0 0 564 448;" xml:space="preserve">
<style type="text/css">
	.st0{clip-path:url(#SVGID_00000034072714341876184180000011147326146142480044_);}
	.st1{fill:#FFFFFF;}
	.st2{fill:#FF9933;}
	.st3{fill:#202A3E;}
	.st4{fill:none;stroke:#202A3E;stroke-width:0.96;stroke-linecap:round;stroke-miterlimit:10;stroke-dasharray:5.26,5.26;}
</style>
<g>
	<defs>
		
			<rect id="SVGID_1_" x="30.5" y="-133.2" transform="matrix(0.2095 -0.9778 0.9778 0.2095 -74.1637 355.35)" width="304.4" height="713.5"/>
	</defs>
	<clipPath id="SVGID_00000036950714198078015770000016933664536227830932_">
		<use xlink:href="#SVGID_1_"  style="overflow:visible;"/>
	</clipPath>
	<g style="clip-path:url(#SVGID_00000036950714198078015770000016933664536227830932_);">
		<path class="st1" d="M388.1,346.3c0.4-0.3,0.7-0.7,1.1-0.9l-0.3-0.3c0,0,0-0.2,0.2-0.1l0.3,0.3c6.6-5.2,12.5,0.9,18.4,5.1
			c2.8,2,5.4,3.8,9,3.8c2.9-0.2,5.8-1,8.4-2.4c2.2-0.9,4.4-1.6,6.7-2.1c0.9-0.4,1.9-0.8,2.9-1.1c-3.9-5.1-7.8-10.3-11.6-15.5
			c-2.7-3.6-6.9-7.8-7.1-12.5c0-1.5,0.5-2.9,1.4-4c1-1.1,2.3-1.8,3.7-2c4.2-0.8,8.1,2,11.3,4.3c5,3.5,10.2,6.9,15.1,10.6
			c4.4,3.4,9.4,6.8,13.5,10.6c1.6-0.5,3.1-0.8,4.6-1.2c0.1,0,0.2,0,0.4,0c0.1,0,0.2,0.1,0.3,0.1c0.3,0,0.7,0.1,1,0.2
			c0.1-0.1,0.1-0.1,0.2-0.1c7.1-2.9,14.5-5,22.1-6.4c5.6-1,11.9-2.5,17.4-0.8c1.2,0.4,2.3,0.9,3.4,1.3c2.3,0.6,4.6,1,7,1.3
			c1.4,0.2,2.7,0.8,3.8,1.6c0.4,0.4,0.7,0.8,0.9,1.3c0.2,0.5,0.3,1,0.3,1.5c0.1,0.1,0.1,0.1,0.1,0.2c0,0.1,0,0.2,0,0.3l-0.3,0.4
			c-0.1,0.4-0.4,0.7-0.6,1c-5.6,8.5-15.9,12.6-25.2,15.9c-5.6,2-11.2,3.6-16.9,5l0.3,1.4c0.5,1.4,0.8,2.8,1.1,4.2
			c1.9-1.1,4-2,6.1-2.7c0.4-0.7,1-1.3,1.8-1.6c0.6-0.2,1.2-0.3,1.8-0.2c0.6,0.1,1.2,0.4,1.6,0.9c4.3,1.2,8.6,13.2,2.7,14.3
			c-0.3,0.1-0.7,0.1-1,0c-3.1,1.3-6.4,2.2-9.8,2.4c2.1,3.6-0.3,7.8-4.9,6.1c-3.1-1.2-5.2-4.7-7.3-7c-3.7-4-7.5-8-11.6-11.7
			c0,0,0,0-0.1,0l-0.1,0c-0.1,0-0.2,0-0.3-0.1l-0.3-0.4c-0.3-0.3-0.7-0.6-1-0.9l-2.2,0.5c-13.2,2.8-26.6,5.1-40.2,4.4
			c-3-0.1-6-0.4-9-0.9c-2.2-0.4-5.5-0.4-7.3-1.7c-0.4-0.3-0.8-0.6-1-1.1c-0.2-0.4-0.3-0.9-0.3-1.4c-2.2,0.6-4.4,1-6.6,1.1
			c-3.3,0-3.5-2.5-1.1-4.6c1.8-1.4,3.9-2.3,6.1-2.8c-1.2-1.6-2.3-3.2-3.4-4.9l-1,0.5c-0.1,0-0.2-0.2-0.1-0.2l1-0.5
			c-1.8-2.6-3.5-5.3-5.3-7.8c-0.1-0.1-0.1-0.3-0.1-0.4C388,346.5,388,346.4,388.1,346.3z"/>
		<path class="st2" d="M515.4,335.3c0.2-0.1,0.4-0.2,0.7-0.3c0.2-0.1,0.5-0.1,0.7-0.1c0.2,0,0.5,0.1,0.7,0.2l0.2,0.1
			c0.3,0.1,0.5,0.3,0.7,0.5c0.2,0.2,0.5,0.4,0.6,0.7c0.5,0.3,1,0.7,1.3,1.3c0.3,0.5,0.5,1.2,0.4,1.8c0,0.6-0.2,1.1-0.5,1.6
			c-0.4,0.6-1.5,1.2-1.5,1.9c0,0.2-0.1,0.4-0.2,0.5c-0.1,0.2-0.3,0.3-0.5,0.3c-0.2,0.1-0.4,0.1-0.6,0c-0.2-0.1-0.4-0.2-0.5-0.3
			c-0.5-0.4-0.9-0.8-1.2-1.3c-0.7-1.1-1.1-2.4-1.2-3.8c-0.1-0.6-0.1-1.1,0.1-1.7C514.7,336.1,515,335.7,515.4,335.3z"/>
		<path class="st2" d="M476.3,382.3c-0.1-0.1-0.2-0.2-0.2-0.4c0-0.1,0-0.3,0-0.4c0-0.1,0.1-0.3,0.2-0.4c0.1-0.1,0.2-0.2,0.4-0.2
			c1.9-0.6,4-0.9,6-0.7c0.1,0,0.2,0,0.3,0.1c0.1,0.1,0.2,0.1,0.3,0.2c0.1,0.1,0.1,0.2,0.1,0.3c0,0.1,0,0.2,0,0.4
			c0.1,0,0.2,0,0.3,0.1c0.1,0.1,0.1,0.1,0.2,0.2c0,0.1,0.1,0.2,0,0.3c0,0.1,0,0.2-0.1,0.3c0,0,0,0.1,0,0.1c-0.7,1-1.8,1.7-3,2
			l-0.1,0c-0.1,0.1-0.2,0.2-0.4,0.2c-0.1,0-0.3,0-0.5,0l-1.6-0.4c-0.1,0.1-0.2,0.2-0.3,0.3c-0.1,0.1-0.2,0.1-0.4,0.1
			c-0.1,0-0.3,0-0.4,0c-0.1,0-0.2-0.1-0.3-0.2l-0.6-0.8c-0.1-0.1-0.1-0.2-0.2-0.3c0-0.1,0-0.3,0-0.4c0-0.1,0.1-0.2,0.1-0.4
			c0.1-0.1,0.2-0.2,0.3-0.3L476.3,382.3z"/>
		<path class="st2" d="M417.8,321.4l0.2-0.1c-0.1-0.1-0.2-0.2-0.2-0.4c-0.2-0.6-0.1-1.3,0-1.9c0.2-0.6,0.5-1.2,1-1.6
			c0.1-0.1,0.2-0.2,0.4-0.2c0.6-0.6,1.4-1,2.2-1.2c0-0.1,0-0.2,0-0.4c0-0.1,0.1-0.2,0.2-0.3c0.1-0.1,0.2-0.2,0.3-0.2
			c0.1,0,0.2,0,0.4,0c2.2,0.2,4.4,0.8,6.5,1.5c0.7,0.2,0.9,1.3,0.1,1.7l-5.4,2.2c-0.5,0.2-2.4,0.8-3.8,1.4c0,0.1,0.1,0.2,0.1,0.3
			c0,0.1,0,0.2-0.1,0.3c-0.2,0.3-0.5,0.6-0.9,0.8c-0.4,0.2-0.7,0.3-1.1,0.3c-0.2,0-0.3-0.1-0.4-0.2c-0.1-0.1-0.2-0.3-0.2-0.4
			c0-0.3,0.1-0.7,0.3-0.9c0-0.1,0-0.2,0.1-0.3C417.7,321.5,417.7,321.5,417.8,321.4z"/>
		<path class="st2" d="M390.8,345.8c2.1-1.7,5.2-1.5,7.7-1.3c0.2,0,0.3,0.1,0.4,0.2c0.1,0.1,0.2,0.2,0.3,0.4c1.1,0.5,2.1,1.2,3,2
			c0,0,0.1,0.1,0.1,0.2c0,0.1,0,0.1,0,0.2c0,0.1,0,0.1-0.1,0.2c0,0.1-0.1,0.1-0.1,0.2c0,0,0,0.1,0,0.1c0,0,0,0,0,0.1
			c-2.2,1.5-4.6,2.8-7.1,3.9c0,0.1-0.1,0.2-0.1,0.3c-0.1,0.1-0.2,0.1-0.3,0.1c-0.6,0.1-1.3,0.3-1.8,0.6c-0.1,0-0.2,0.1-0.3,0
			c-0.1,0-0.2-0.1-0.3-0.1c-0.1-0.1-0.1-0.2-0.2-0.3c0-0.1,0-0.2,0-0.3c-0.1-0.1-0.1-0.1-0.2-0.2
			C390.6,350.2,388.5,347.6,390.8,345.8z"/>
		<path class="st3" d="M388.1,347.1c1.8,2.6,3.5,5.2,5.3,7.8l-1,0.5c-0.1,0-0.1,0.3,0.1,0.2l1-0.5c1.1,1.7,2.2,3.3,3.4,4.9
			c-2.2,0.5-4.3,1.4-6.1,2.8c-2.4,2.1-2.2,4.6,1.1,4.6c2.2-0.1,4.5-0.5,6.6-1.1c0,0.5,0.1,1,0.3,1.4c0.2,0.4,0.6,0.8,1,1.1
			c1.9,1.4,5.2,1.4,7.3,1.7c3,0.5,6,0.8,9,0.9c13.6,0.7,27-1.6,40.2-4.4l2.2-0.5c0.3,0.3,0.7,0.6,1,0.9l0.3,0.4
			c0.1,0.1,0.2,0.1,0.3,0.1l0.1,0c0,0,0,0,0,0c0,0,0,0,0,0c4.1,3.7,7.9,7.6,11.6,11.7c2.1,2.3,4.3,5.8,7.3,7c4.7,1.8,7-2.5,4.9-6.1
			c3.4-0.3,6.7-1.1,9.8-2.4c0.4,0,0.7,0,1.1,0c5.8-1.2,1.5-13.2-2.7-14.3c-0.4-0.5-1-0.8-1.6-0.9c-0.6-0.1-1.3-0.1-1.8,0.2
			c-0.8,0.3-1.4,0.9-1.8,1.6c-2.1,0.7-4.1,1.6-6.1,2.7c-0.3-1.4-0.7-2.8-1.1-4.2l-0.3-1.4c5.7-1.5,11.4-3.1,16.9-5
			c9.3-3.2,19.5-7.4,25.2-15.9c0.3-0.3,0.5-0.6,0.6-1l0.3-0.4c0-0.1,0-0.2,0-0.3c0-0.1-0.1-0.2-0.1-0.2c0-0.5-0.1-1-0.3-1.5
			s-0.5-0.9-0.9-1.3c-1.1-0.9-2.4-1.5-3.8-1.6c-2.4-0.3-4.7-0.8-7-1.3c-1.1-0.4-2.3-1-3.4-1.3c-5.5-1.7-11.9-0.2-17.4,0.8
			c-7.5,1.4-14.9,3.5-22.1,6.4c-0.1,0-0.2,0.1-0.2,0.1c-0.3-0.1-0.6-0.2-1-0.2c-0.1-0.1-0.2-0.1-0.3-0.1c-0.1,0-0.2,0-0.4,0
			c-1.4,0.3-3,0.7-4.6,1.2c-4.2-3.8-9.1-7.2-13.5-10.6c-4.9-3.7-10.1-7.1-15.1-10.6c-3.2-2.3-7.1-5.1-11.3-4.3
			c-1.4,0.2-2.8,0.9-3.8,2c-1,1.1-1.5,2.5-1.4,4c0.1,4.7,4.5,9,7.1,12.5c3.8,5.2,7.7,10.4,11.6,15.5c-1,0.3-2,0.6-2.9,1.1
			c-2.3,0.5-4.6,1.2-6.7,2.1c-2.6,1.4-5.5,2.2-8.4,2.4c-3.6,0-6.2-1.8-9-3.8c-5.8-4.2-11.7-10.2-18.4-5.1l-0.3-0.3
			c-0.1,0-0.2,0-0.2,0.1l0.3,0.4c-0.4,0.3-0.7,0.6-1.1,0.9c-0.1,0.1-0.2,0.3-0.2,0.4C387.9,346.8,388,346.9,388.1,347.1z
			 M418.7,325.5c-0.2-0.3-0.3-0.6-0.4-1c2.9-4.5,14.6,8.6,17.1,11.3c-2.4,0.8-4.8,1.7-7.1,2.7c-0.2,0.1-0.1,0.3,0.1,0.2
			c2.4-0.8,4.7-1.8,7-2.8l0.2,0.3c2.5,2.4,4.8,5.1,6.7,8c0.8,1.3,2.1,4.1,0.6,5.6c-1.2,0.6-2.5,1.1-3.8,1.4c-1.1-0.9-2.2-1.9-3.2-3
			c-3.3-3.5-6.2-7.3-9.1-11.1C424,333.3,420.7,329.5,418.7,325.5z M457.3,338.5c0.7,0.7,1.4,1.3,2.3,2c-2.4,0.7-4.6,2.1-6.3,4
			c-1.9,2.3-2.8,5.9-0.9,8.4c1,0.9,2.3,1.5,3.7,1.6c-2.1,0.2-4.1,0.3-6.1,0.3c-3.7,0-7.4-1.2-10.4-3.5c1.8-0.4,3.4-1,5.1-1.5
			c0.1,0,0.2-0.1,0.2-0.2c0-0.1,0.1-0.2,0-0.3c-1.9-8.1-9.5-14.3-15.3-19.8c-1.7-1.6-8.9-10.3-11.6-6.2c-1.3-5.2,2.2-8.8,7.6-7.6
			c2.4,0.7,4.7,1.9,6.7,3.4c3.8,2.4,7.4,5,10.9,7.7C447.6,330.4,452.1,335.7,457.3,338.5L457.3,338.5z M468.4,341.2
			c0.9,1.8,1.5,3.7,1.9,5.7c0.1,0.5,0.2,1.1,0.2,1.6l0.1,0.5c0,0.2-0.1,0.4-0.1,0.5c-0.1,0.2-0.2,0.3-0.3,0.4
			c1.1-1.9-1.5-6.6-2.2-7.8c-0.2-0.4-0.6-0.8-1-1.1c0.2-0.2,0.5-0.2,0.7-0.3c0.3,0,0.5,0.1,0.8,0.2
			C468.3,341.1,468.3,341.2,468.4,341.2z M466.6,348.2l0.3,0.9c0,0.1,0.1,0.2,0.2,0.3c0.2,0.3,0.4,0.6,0.6,0.9
			c-1.5,0.2-1.5-0.2-2.3-1.7c-0.6-1.1-1-2.3-1.2-3.5c-0.1-0.5-0.2-1.1-0.2-1.6c-0.3-1.4,0.2-2.1,1.6-2.1c-0.1,0.3-0.2,0.5-0.3,0.8
			C465.2,344.2,465.6,346.3,466.6,348.2L466.6,348.2z M466.8,352.1c-2.2,0.6-4.5,0.9-6.8,0.9c-2.9,0.1-7.2,0.9-7.3-3.3
			c-0.1-3.7,3.4-5.9,6.4-7.1c0.5-0.2,2.9-1.2,4.7-1.7c-0.2,0.5-0.4,1.1-0.4,1.6c-0.1,1.7,0.1,3.4,0.6,5c0.5,1.6,1.4,3.1,2.5,4.4
			L466.8,352.1z M460.9,340.1l-0.3,0.1l-0.2-0.2L460.9,340.1z M492.9,376.6c-1.7-0.7-3-2-3.8-3.7c-1.3-2.1-1.9-4.6-1.6-7l0.7-0.3
			c0.3,1.8,0.9,3.5,1.6,5.2c0.3,1,0.8,2,1.4,2.9c0.2,0.5,0.5,0.9,0.9,1.2c0.4,0.3,0.8,0.6,1.3,0.8c3,0.8,2.8-2.2,2.1-4.8
			c-0.1-0.3-0.1-0.6-0.2-0.9c-0.3-1-0.6-2.1-1-3.1c1.1,1.9,1.7,3.9,2,6.1C496.5,375,495.5,377.4,492.9,376.6z M482.7,379.4
			c-3.2,0.1-3.5,0.2-5.5-2.7c-2.4-1.7-2.4-3.5-0.1-5.4l2-1.6c1.2-0.7,2.4-1.4,3.7-1.9c1.3-0.6,2.6-1.2,3.8-1.7
			c-0.1,2.2,0.4,4.5,1.4,6.5s2.5,3.7,4.3,5c-1.5,0.4-3,0.7-4.5,1C486.2,379,484.5,379.3,482.7,379.4z M477.9,380.3l-0.4,0.4l0.1-0.1
			C477.7,380.5,477.8,380.4,477.9,380.3z M475.7,382.6c0.6-0.1,1.1-0.4,1.5-0.8c0.4-0.4,0.8-0.9,1-1.4c1.8,0.5,3.6,0.6,5.4,0.3
			c0.8,2.4-1.2,3.6-6.1,3.7C476.9,383.8,476.3,383.2,475.7,382.6L475.7,382.6z M460,366.2c6.3-1.3,12.5-2.7,18.7-4.3l0.3,1.2
			c0.2,1.6,0.6,3.1,1,4.7l0.1,0.2c-3,1.8-5.5,4.2-5.7,6.9l-1.2-1.3c0.1-0.1,0-0.2-0.1-0.1c-1.7-2.2-3.7-4.2-6-5.9
			c-0.6-0.4-1.2-0.7-2-0.8c-0.7-0.1-1.4,0-2.1,0.2c-0.2,0.1-0.1,0.4,0.1,0.3c3.5-1.4,7.3,3.7,9.6,6.4c-0.6,0.4-1.3,0.7-2.1,0.8
			c-0.7,0.1-1.5,0.1-2.2,0c0,0-0.1,0-0.1,0s-0.1,0.1-0.1,0.1c0,0,0,0.1,0,0.1c0,0,0.1,0.1,0.1,0.1c0.8,0.2,1.6,0.3,2.4,0.1
			s1.5-0.5,2.1-1l0.3,0.3l1.2,1.2c0,1,0.3,1.9,0.8,2.8c0.5,0.8,1.2,1.5,2,1.9l-0.1,0.1c-0.1,0.2-0.1,0.3-0.2,0.5l-0.2,0.2
			c-0.3,0.2-0.6,0.4-0.9,0.6c-0.3,0.1-0.6,0.2-0.8,0.4c-1.4-1.5-2.8-3.1-4.3-4.6c-3.2-3.3-6.4-6.5-9.6-9.7c0-0.1-0.1-0.1-0.1-0.2
			L460,366.2z M400.6,365.8c0.5-0.1,1-0.2,1.5-0.3c3.3-0.6,8.5-1,11.1-3.4c1.9-1.8,1.8-4.5-1.2-4.5c-0.1,0-0.1,0-0.2,0.1
			c-3.4,0-6.8,0.4-10,1.3c-2.4-4.7-7-8.6-10.9-12.3c1.8-2.2,6.8-1.5,8.9-0.4c1.3,0.7,2.5,1.6,3.6,2.5c2.1,1.5,4.2,3.2,6.4,4.6
			c1.9,1.2,4,2,6.2,2.3c2.2,0.3,4.5,0.1,6.6-0.7c2.9-0.9,5.6-2.2,8.6-3.1c1.8-0.4,3.6-0.7,5.3-1.2l0.4,0.5c-0.3,0.1-0.5,0.2-0.6,0.5
			c-0.3,0.3-0.6,0.8-0.6,1.2c-0.1,0.5,0,0.9,0.3,1.3c0.2,0.3,0.4,0.5,0.6,0.6c0.3,0.1,0.5,0.2,0.8,0.2c0.6-0.1,1.1-0.3,1.5-0.8
			c0.3-0.2,0.5-0.5,0.6-0.9c6,4.1,13.5,2.7,21.1,1.6c2.9,0,5.7-0.6,8.3-1.9c0.6-0.1,1.1-0.3,1.5-0.6c0.5-0.3,0.8-0.8,1-1.3
			c1-2.2,0.3-5.3-0.8-7.8c-0.3-1.1-0.9-2.2-1.6-3.1c8.7-3.4,17.9-5.7,27.2-6.8c3.4-0.5,6.8-0.4,10.1,0.3c-0.3,0.3-0.5,0.6-0.6,0.9
			c-0.1,0.3-0.2,0.7-0.2,1.1c0,0.2,0.1,0.4,0.1,0.5c0.1,0.2,0.2,0.3,0.3,0.4c0.1,0.1,0.3,0.2,0.5,0.2c0.2,0,0.4,0,0.5,0
			c1.3-0.2,2.7-0.3,4-0.6c0.7-0.1,1.3-0.3,2-0.6l1.3,0.3c0.6,0.1,1.2,0.1,1.8,0.1c2.9-0.2,4.4,1.4,4.3,4.8
			c-12.6,14.5-35.2,18.4-53.1,22.5c-11,2.7-22.1,4.8-33.4,6.2c-5.3,0.6-10.7,0.8-16,0.7c-3.2-0.1-6.4-0.4-9.5-0.8
			c-1.2-0.2-2.3-0.4-3.5-0.6c-0.9-0.2-1.7-0.4-2.6-0.6L400.6,365.8z M398.2,361.6l0.2,0.3c0.4,0.5,1.2-0.2,0.9-0.7
			c4.3-1.3,9.9-2.3,12.6-3c0.6,2.7-0.6,4.2-3.5,4.4l-1.7,0.5c-1.7,0.5-3.4,0.8-5.1,1.2l-1.2,0.2c-0.1-0.1-0.2-0.1-0.3-0.1
			c-0.1,0-0.3,0-0.4,0.1l-0.3,0.2l-2.8,0.6c-1.5,0.3-3.3,1.6-3.1-0.5c0-0.1,0-0.2,0.1-0.3c5.7-0.9,11.3-2.2,16.7-4c0,0,0-0.1,0,0
			c-5.4,1.5-10.9,2.7-16.5,3.7C395.1,363,396.6,362.1,398.2,361.6L398.2,361.6z M394.2,354.9l3.1-1.5c1.7,1.7,3.2,3.5,4.4,5.5
			l-1.6,0.4l-1.9,0.5C397,358.4,395.5,356.7,394.2,354.9L394.2,354.9z M390.6,346.9c0.7,0.7,1.6,1.3,2.2,1.9l3,3.1l1.4,1.4
			c-1,0.5-2.1,0.9-3.1,1.4C391.6,351.6,389.7,348.5,390.6,346.9L390.6,346.9z"/>
		<path class="st3" d="M500.3,334.5c0.3,0,0.5,0.1,0.8,0.2c0.4,0.1,0.7,0.4,0.9,0.7c0.2,0.3,0.4,0.7,0.4,1.1l0-0.3
			c0.1,0.2,0.1,0.4,0,0.6c0,0.3-0.2,0.7-0.4,0.9c0,0-0.1,0.1-0.1,0.1c-0.2,0.2-0.5,0.4-0.8,0.5c-0.3,0.1-0.7,0.1-1,0
			c-0.3-0.1-0.5-0.2-0.7-0.3c-0.3-0.2-0.6-0.5-0.8-0.9c-0.2-0.4-0.2-0.8-0.1-1.2c0.1-0.4,0.3-0.8,0.7-1
			C499.5,334.6,499.9,334.5,500.3,334.5z"/>
		<path class="st3" d="M494,336.3c0.1,0.1,0.3,0.1,0.4,0.2c0.3,0.2,0.5,0.4,0.6,0.7c0.1,0.3,0.1,0.6,0.1,0.9
			c-0.1,0.3-0.2,0.5-0.3,0.7c-0.1,0.2-0.3,0.4-0.6,0.5c-0.2,0.1-0.5,0.2-0.7,0.3c-0.3,0-0.5,0-0.8-0.1c-0.2-0.1-0.5-0.2-0.7-0.4
			c-0.2-0.2-0.3-0.4-0.4-0.7l0-0.1c-0.1-0.3-0.1-0.6,0-0.9c0.1-0.3,0.3-0.6,0.5-0.8c0.2-0.2,0.5-0.3,0.8-0.4
			C493.4,336.2,493.7,336.2,494,336.3z"/>
		<path class="st3" d="M487.9,337.5c0.2,0.1,0.4,0.2,0.6,0.4s0.3,0.4,0.4,0.6c0.1,0.2,0.1,0.4,0.1,0.7c0,0.2-0.1,0.5-0.2,0.7
			c-0.2,0.3-0.5,0.6-0.8,0.8c-0.2,0.1-0.5,0.2-0.8,0.3c-0.3,0-0.6,0-0.8-0.1c-0.3-0.1-0.5-0.3-0.7-0.5c-0.2-0.2-0.3-0.4-0.4-0.7
			c-0.1-0.3-0.1-0.6,0-1c0.1-0.3,0.2-0.5,0.4-0.7c0.2-0.2,0.4-0.4,0.7-0.5c0.3-0.1,0.5-0.2,0.8-0.1
			C487.4,337.3,487.6,337.3,487.9,337.5z"/>
		<path class="st3" d="M480.7,338.7c0.4,0.1,0.7,0.4,0.9,0.8c0.2,0.4,0.3,0.8,0.2,1.2c-0.1,0.4-0.2,0.7-0.5,1.1
			c-0.2,0.4-0.6,0.6-1,0.8c-0.4,0.1-0.8,0.1-1.2,0c-0.4-0.1-0.7-0.4-0.9-0.8c-0.2-0.4-0.2-0.8-0.1-1.2c0.1-0.6,0.5-1.1,1-1.4
			C479.5,338.7,480.1,338.6,480.7,338.7z"/>
		<path class="st3" d="M472.8,341.7c0.3-0.1,0.6-0.1,0.9,0c0.3,0.1,0.5,0.3,0.7,0.6l0.2,0c0.1,0.1,0.1,0.1,0.1,0.2s0.1,0.2,0.1,0.2
			c0,0.1,0,0.2,0,0.2c0,0.1-0.1,0.1-0.1,0.2c0,0.2-0.2,0.5-0.3,0.7c-0.2,0.2-0.4,0.3-0.6,0.4c-0.3,0.1-0.7,0.1-1-0.1
			c-0.3-0.2-0.6-0.5-0.7-0.8c-0.1-0.3,0-0.7,0.1-1C472.2,342,472.5,341.8,472.8,341.7z"/>
		<path class="st3" d="M429.8,353.3c0.5,0,0.9,0.2,1.3,0.5c0.3,0.3,0.5,0.8,0.6,1.3c0,0.5-0.2,0.9-0.5,1.3c-0.3,0.3-0.8,0.5-1.3,0.6
			c-0.5,0-0.9-0.2-1.3-0.5c-0.3-0.3-0.5-0.8-0.6-1.3c0-0.5,0.2-0.9,0.5-1.3C428.8,353.6,429.3,353.4,429.8,353.3z"/>
		<path class="st3" d="M421.4,358.6c-0.2-0.2-0.3-0.4-0.4-0.7c0-0.3,0-0.5,0.1-0.8c0.2-0.3,0.4-0.5,0.7-0.6c0.3-0.1,0.6-0.1,0.9,0
			l0.1,0c0.1-0.1,0.2-0.1,0.3-0.1c0.1,0,0.2,0,0.2,0.1c0.1,0.1,0.1,0.2,0.1,0.2c0,0.1,0,0.2-0.1,0.3l0,0.1c0.1,0.3,0.1,0.5,0.1,0.8
			c-0.1,0.3-0.2,0.5-0.4,0.7c-0.2,0.2-0.6,0.3-0.9,0.3S421.6,358.8,421.4,358.6z"/>
		<path class="st3" d="M421,366.3c0-0.2,0.1-0.4,0.1-0.5c0,0,0.1-0.1,0.1-0.1c0,0,0.1,0,0.1,0c0.2,0,0.3,0.1,0.5,0.2
			c0.1,0.1,0.3,0.2,0.3,0.4c0.2,0.4,0.3,0.9,0.2,1.4c-0.2,1-1.8,0.6-1.6-0.4C420.9,366.9,421,366.6,421,366.3z"/>
		<path class="st3" d="M423.8,365.7c0.5,0.3,1,1,0.6,1.5c0,0-0.1,0.1-0.1,0.1c-0.1,0-0.1,0-0.2,0c-0.1,0-0.1,0-0.1-0.1
			c0,0-0.1-0.1-0.1-0.1c-0.2-0.2-0.1-0.6-0.4-0.8c0-0.1-0.1-0.1-0.1-0.2c0-0.1,0-0.2,0.1-0.2c0-0.1,0.1-0.1,0.2-0.2
			C423.7,365.7,423.7,365.7,423.8,365.7z"/>
		<path class="st3" d="M426,365.9c0.2,0.1,0.4,0.1,0.6,0.1c0,0,0.1,0,0.1,0c0,0,0.1,0.1,0.1,0.1c0,0,0,0.1,0,0.1c0,0,0,0.1-0.1,0.1
			c-0.1,0.1-0.3,0.2-0.5,0.2c-0.2,0-0.4,0-0.5-0.1C425.4,366.2,425.7,365.7,426,365.9z"/>
		<path class="st3" d="M462.4,361.3c0.1,0,0.2,0,0.2,0c0.1,0,0.2,0.1,0.2,0.1c0.1,0.1,0.1,0.1,0.1,0.2c0,0.1,0,0.2,0,0.2
			c0,0.1,0,0.2-0.1,0.3c0,0,0,0.1-0.1,0.1c0,0-0.1,0.1-0.1,0.1c0,0-0.1,0-0.1,0c0,0-0.1,0-0.1,0c-0.1,0-0.2-0.1-0.3-0.2
			c-0.1-0.1-0.1-0.1-0.1-0.2c0-0.1,0-0.2,0-0.2c0-0.1,0.1-0.2,0.1-0.2C462.2,361.4,462.3,361.4,462.4,361.3z"/>
		<path class="st3" d="M464.2,359.9l0.4,0.1c0.4,0.1,0.1,0.7-0.2,0.5c-0.1-0.1-0.2-0.2-0.3-0.3C463.9,360.1,464,359.8,464.2,359.9z"
			/>
		<path class="st3" d="M462.1,349c0.5,0.2,0.9,0.5,1.1,0.9c0.2,0.2,0,0.6-0.3,0.4c-0.5-0.2-0.8-0.6-1-1.1c0,0,0-0.1,0-0.1
			s0-0.1,0-0.1C462,349,462,349,462.1,349C462.1,349,462.1,349,462.1,349z"/>
		<path class="st3" d="M460.8,349.8c0.3,0.1,0.6,0.2,0.9,0.4c0,0,0.1,0.1,0.1,0.1c0,0.1,0,0.1,0,0.2c0,0.1-0.1,0.1-0.1,0.1
			c-0.1,0-0.1,0-0.2,0c-0.3-0.1-0.6-0.3-0.8-0.6c0,0,0-0.1,0-0.1c0,0,0-0.1,0-0.1C460.7,349.9,460.7,349.9,460.8,349.8
			C460.8,349.8,460.8,349.8,460.8,349.8z"/>
		<path class="st3" d="M459.8,350.8c-0.4-0.2-0.8-0.5-1.1-0.8c0,0,0-0.1,0-0.1c0,0,0-0.1,0-0.1c0,0,0.1-0.1,0.1-0.1c0,0,0.1,0,0.1,0
			c0.4,0.2,0.8,0.5,1.1,0.8C460.1,350.6,460,350.9,459.8,350.8z"/>
		<path class="st3" d="M487.6,376.2c0.5,0.1,1.1,0.3,1.6,0.4c0.6,0,0.2,0.4-0.1,0.5c-0.3,0.1-0.6,0.1-1,0c-0.3-0.1-0.6-0.3-0.8-0.5
			c0,0,0-0.1,0-0.1c0,0,0-0.1,0-0.1c0,0,0-0.1,0.1-0.1C487.5,376.2,487.5,376.2,487.6,376.2z"/>
		<path class="st3" d="M486.1,377c0.2,0,0.4,0,0.5,0.1c0.3,0.1,0.2,0.5-0.1,0.4c-0.2,0-0.4-0.1-0.5-0.1c-0.1,0-0.1,0-0.1-0.1
			c0,0,0-0.1,0-0.2c0-0.1,0-0.1,0.1-0.1C486,377,486.1,377,486.1,377z"/>
		<path class="st3" d="M484.3,377c0.1,0,0.3,0.1,0.4,0.2c0.1,0.1,0.2,0.2,0.2,0.4c0,0.1-0.2,0.2-0.2,0.1c0-0.1-0.1-0.2-0.2-0.3
			c-0.1-0.1-0.2-0.1-0.3-0.2c0,0,0,0-0.1-0.1c0,0,0-0.1,0-0.1C484.2,377,484.2,377,484.3,377C484.2,377,484.2,377,484.3,377z"/>
		<path class="st3" d="M507.6,347.1c-0.2,0.2-0.3,0.5-0.6,0.6c0,0-0.2,0-0.2,0c0.1-0.3,0.2-0.5,0.4-0.8
			C507.4,346.7,507.7,346.9,507.6,347.1z"/>
		<path class="st3" d="M504.9,348.4l0.3,0.1c0.3,0.1,0.1,0.4-0.1,0.3l-0.3-0.2c0,0,0,0,0,0C504.8,348.5,504.8,348.5,504.9,348.4
			C504.9,348.5,504.9,348.5,504.9,348.4C504.9,348.4,504.9,348.4,504.9,348.4z"/>
		<path class="st3" d="M503.2,348.9C503.2,348.9,503.3,348.9,503.2,348.9c0.1,0.1,0.1,0.1,0.1,0.2c0,0,0,0.1-0.1,0.1
			c0,0-0.1,0-0.1,0c0,0-0.1,0-0.1-0.1c0,0,0-0.1,0-0.1c0,0,0-0.1,0.1-0.1C503.1,348.9,503.2,348.9,503.2,348.9z"/>
		<path class="st3" d="M484.1,355.1c0.2,0,0.3,0.1,0.4,0.2c0.1,0.1,0.2,0.2,0.3,0.3c0.1,0.2-0.1,0.5-0.3,0.3
			c-0.2-0.2-0.4-0.3-0.6-0.5c0,0-0.1-0.1-0.1-0.1c0,0,0-0.1,0-0.1c0,0,0-0.1,0.1-0.1C484,355.1,484,355,484.1,355.1z"/>
		<path class="st3" d="M482.7,356.2c0.3,0.2,0.6,0.4,0.9,0.6c0.2,0.1-0.1,0.5-0.2,0.3c-0.3-0.2-0.6-0.4-0.8-0.7c0,0,0-0.1,0-0.1
			c0,0,0-0.1,0-0.1c0,0,0.1-0.1,0.1-0.1C482.6,356.2,482.6,356.2,482.7,356.2z"/>
		<path class="st3" d="M481.5,356.6c0.2,0,0.3,0.1,0.5,0.1c0.2,0,0.1,0.3-0.1,0.3l-0.5-0.1C481.3,356.8,481.4,356.5,481.5,356.6z"/>
		<path class="st3" d="M476.2,355.4c-0.1,0.4-0.3,0.9-0.5,1.3c0,0,0,0-0.1,0.1c0,0-0.1,0-0.1,0c0,0-0.1,0-0.1,0c0,0,0,0,0-0.1
			c0.1-0.4,0.2-0.9,0.4-1.3C475.9,355.1,476.2,355.2,476.2,355.4z"/>
		<path class="st3" d="M473.7,355.8c0-0.3,0.4-0.4,0.4-0.1c0.1,0.2,0.1,0.5,0,0.7c-0.1,0.2-0.2,0.5-0.3,0.7c0,0,0,0,0,0.1
			c0,0,0,0-0.1,0c0,0,0,0-0.1,0c0,0,0-0.1,0-0.1C473.7,356.6,473.7,356.2,473.7,355.8z"/>
		<path class="st3" d="M444.9,341.7c-0.2,0.1-0.3-0.1-0.2-0.3c0.2-0.2,0.5-0.5,0.8-0.7c0.2-0.1,0.5,0.1,0.3,0.3
			C445.5,341.3,445.2,341.5,444.9,341.7z"/>
		<path class="st3" d="M443.1,338.9C443.1,338.9,443,338.9,443.1,338.9c-0.1,0-0.1,0-0.1,0c0,0,0,0,0-0.1c0,0,0,0,0-0.1
			c0,0,0,0,0-0.1c0,0,0,0,0.1,0c0,0,0,0,0.1,0c0,0,0,0,0.1,0c0,0,0,0,0.1,0.1c0,0,0,0.1,0,0.1C443.2,338.8,443.2,338.8,443.1,338.9
			C443.1,338.9,443.1,338.9,443.1,338.9z"/>
		<path class="st3" d="M439.4,335.1c0.1-0.3,0.1-0.5,0.1-0.8c0-0.3,0.4-0.2,0.3,0.1s-0.1,0.5-0.2,0.8
			C439.6,335.5,439.4,335.3,439.4,335.1z"/>
		<path class="st3" d="M440.7,364.4c-0.1,0.2-0.2,0.4-0.3,0.6c0,0.1-0.4,0.1-0.3-0.1c0.1-0.2,0.2-0.5,0.3-0.7
			C440.5,364,440.8,364.2,440.7,364.4z"/>
		<path class="st3" d="M437.8,363.3c0.1-0.2,0.5,0,0.4,0.2c-0.2,0.4-0.6,0.6-1,0.8c0,0,0,0-0.1,0c0,0,0,0-0.1,0c0,0,0,0,0-0.1
			c0,0,0,0,0-0.1C437.4,363.8,437.6,363.5,437.8,363.3z"/>
		<path class="st4" d="M-42.6,24.2c-18.9-14.1-46.4-8.8-66.1,4.1c-35.9,23.4-54.8,70.4-44.8,112.2c4,17,14.2,34.4,31,38.8
			c2,0.6,4.1,0.7,6.1,0.3c6.1-1.7,6.7-11.5,1.6-15.3c-5.1-3.8-12.9-1.9-17.4,2.6c-4.5,4.5-6.5,10.9-7.7,17.2
			c-7.2,36.3,5.7,75.1,30.5,102.5c24.8,27.4,60.5,43.7,97.2,48.3c9.8,1.4,19.8,1.5,29.6,0.1c13.2-2.2,25.5-8.1,38.6-10.9
			s28.2-2,37.8,7.4c4.5,4.4,7.4,11,5.9,17.1c-1.5,6.1-8.3,11-14.3,9c-6-2-8.5-9.8-7.4-16.1c1.9-11.1,11.7-19.5,22.5-22.8
			c10.8-3.3,22.3-2.1,33.3-0.1c25,4.6,49,13.8,70.7,27c14.9,9.1,28.7,20.1,44.1,28.3c19.4,10.3,40.9,16.1,62.9,17.1
			c22,1,43.9-2.9,64.1-11.4"/>
	</g>
</g>
</svg>
