<?xml version="1.0" encoding="UTF-8"?>
<svg id="Layer_1" data-name="Layer 1" xmlns="http://www.w3.org/2000/svg" viewBox="0 0 209.34 267.57">
  <defs>
    <style>
      .cls-1 {
        fill: #212a3e;
      }

      .cls-1, .cls-2, .cls-3 {
        stroke-width: 0px;
      }

      .cls-2 {
        fill: #f49739;
      }

      .cls-3 {
        fill: #009fe3;
      }
    </style>
  </defs>
  <circle class="cls-2" cx="106.61" cy="92.15" r="65.9"/>
  <path class="cls-1" d="m150.09,12.76c12.34,4.42,22.8,12.99,29.37,24.32.04.07.08.14.12.21,3.33,5.79,5.69,11.98,7.47,18.42,3.73,13.47,4.46,27.23,3.39,41.05-.57,7.28-1.81,14.55-3.31,21.7-2.45,11.66-6.31,22.9-10.83,33.93-5.46,13.29-11.52,26.29-18.59,38.79-6.42,11.35-13.48,22.29-22.56,31.78-4.15,4.34-8.66,8.23-14.08,10.94-5.52,2.76-11.26,3.49-17.18,1.56-2.66-.87-5.52-1.63-7.77-3.19-5.17-3.58-10.28-7.32-14.92-11.55-4.28-3.9-7.99-8.44-11.81-12.82-9.48-10.87-17.03-23.03-23.74-35.75-4.83-9.15-9.02-18.59-12.34-28.36-3.13-9.2-5.77-18.58-8.25-27.99-1.93-7.33-2.93-14.86-3.34-22.44-.15-2.7.08-5.43-.12-8.12-.51-6.67.44-13.22,1.61-19.72,2.37-13.16,8.51-24.32,18.38-33.41,8.51-7.83,18.3-13.48,29.07-17.54,2.44-.92,4.87-1.85,7.31-2.78,0,0,37.64-11.37,72.13.98Zm11.7,56.3c-5.09-11.43-14.03-21.11-25.03-27.1-2.55-1.39-5.49-2.61-8.3-1.85-1.61.43-3.18,1.97-2.68,3.56.19.6.63,1.07,1.09,1.5,1.87,1.77,4.13,3.1,5.89,4.96s3.01,4.57,2.19,7c-1.23,3.64-5.91,4.46-9.75,4.67-3.24.18-6.47.36-9.71.54-.94.05-1.93.12-2.74.61-2.35,1.43-1.56,4.96-2.23,7.62-.8,3.16-4.35,5.33-7.52,4.6-3.01-.69-5.43-3.53-8.51-3.36-2.8.16-4.78,2.75-6.09,5.23s-2.53,5.27-5.02,6.55c-2.91,1.5-6.59.3-9.02-1.89s-3.95-5.17-5.66-7.96c-.5-.82-1.2-1.73-2.16-1.72-.5,0-.96.27-1.39.52-3.63,2.13-7.24,4.28-10.88,6.39-5.39,3.11-5.34,11.34-4.74,16.79.53,4.77,1.65,10.04,3.52,14.46,3.73-8.1,13.11-13.95,21.63-15.6,7.94-1.54,16.15-.02,23.93,2.15,15.57,4.35,31.28,11.44,47.22,8.72,5.11-.87,10.42-3.08,12.97-7.59,2.48-4.39,1.68-10.14-1.14-14.33s-7.34-6.97-12.08-8.7c-3.94-1.44-8.34-2.22-12.32-.89s-7.3,5.27-6.8,9.44c.48,4.02,4.33,7.01,8.33,7.63s8.05-.66,11.72-2.35c-3.58,4.66-10.37,6.52-15.82,4.33s-9.08-8.22-8.45-14.06c.85-7.88,8.65-13.59,16.51-14.58s15.69,1.69,23.03,4.69Zm2.09,43.24c-2.55,1.33-5.11,2.66-7.84,3.57-5.8,1.93-12.09,1.87-18.14,1-10.77-1.54-21.03-5.5-31.02-9.8-7.62-3.28-15.34-6.81-23.6-7.56-10.71-.98-23.07,4.67-26.93,15.4-.94,2.62-.66,5.89,1.43,7.74.21.18.45.36.72.37.35.02.66-.23.93-.47,3.68-3.17,8.05-5.6,12.8-6.62,8.25-1.77,16.81.82,24.51,4.29s15.04,7.87,23.2,10.03c9.93,2.63,20.64,1.74,30.27-1.83,2.94-1.09,5.85-2.46,8.05-4.69,3.02-3.05,4.37-7.33,5.62-11.43Zm-110.89-35.97c4.54-1.25,7.12-5.52,10.69-8.25.8-.61,1.69-1.16,2.69-1.29,2.61-.34,4.62,2.16,6.06,4.37,1.58,2.44,3.17,4.89,4.75,7.33.72,1.11,1.56,2.31,2.85,2.61,1.24.29,2.52-.37,3.48-1.22,2.96-2.65,4.06-7.24,7.63-8.97,2.54-1.23,5.64-.58,8.13.75,2.37,1.26,5.07,3.14,7.45,1.9,1.71-.89,2.31-3.03,2.5-4.95s.18-3.98,1.27-5.57c1.02-1.49,2.84-2.26,4.63-2.51s3.61-.04,5.41.02c2.84.09,5.69-.21,8.45-.87,1.18-.28,2.4-.67,3.24-1.53,1.39-1.43,1.36-3.81.43-5.57s-2.55-3.05-4.15-4.23-3.28-2.35-4.39-4.01c-.43-.63-.77-1.38-.66-2.14.31-2.08,3.47-2.33,4.51-4.17-4.14-1.25-8.35-2.27-12.6-3.07-.27-.05-.57-.1-.82.02-.49.25-.47.95-.4,1.49,1.07,7.61-1.66,15.67-7.13,21.07s-13.56,8.02-21.16,6.84-14.53-6.11-18.12-12.91c-3.64,3.37-6.82,7.15-9.34,11.43-2.31,3.92-4.69,8.87-5.39,13.4Zm76.12,67.66c.09-.04.15-.07.15-.07-.48-.08-.95-.18-1.43-.23-4.29-.52-8.36-1.81-12.28-3.58-6.18-2.8-11.63-6.75-17-10.83-4.47-3.39-8.92-6.82-14.23-8.91-8.37-3.3-16.19-2.3-23.54,2.8-1.68,1.16-1.87,2-.7,3.62,1.94,2.67,3.9,5.34,5.91,7.96.43.56.96,1.19,1.91.58,1.28-.82,2.61-1.59,3.98-2.24,5.25-2.48,10.55-2.5,15.41.72,3.63,2.4,6.93,5.33,10.27,8.15,5.97,5.04,12.47,7.2,20.25,5.83,2.32-.41,4.6-1.05,6.84-1.76.54-.17,3.72-1.69,4.45-2.03Zm-40.44-84.29c3.5-.13,6.93-1.14,9.83-3.11,6.14-4.16,9.22-12.62,6.6-19.56-.27-.7-.64-1.45-1.32-1.76-.5-.23-1.08-.18-1.62-.12-7.72.84-15.27,3.2-22.11,6.89-2.36,1.27-7.54,3.44-8.28,6.11-.97,3.46,3.06,7.23,5.63,8.74,3.38,1.99,7.36,2.95,11.27,2.81Zm-17.77,78.74c8.54,7.09,18.14,11.33,28.98,12.88-.16-.42-.43-.68-.7-.93-1.74-1.59-3.49-3.17-5.21-4.78-2.89-2.71-5.66-5.57-8.66-8.15-4-3.44-10.7-2.01-14.41.98Z"/>
  <g>
    <path class="cls-3" d="m2.21,179.98c-.09-.25-.09-1.7,0-3.23.25-2.55.34-2.89,1.11-3.66,2.72-2.89,12.33-7.57,22.46-10.8,7.74-2.55,23.31-5.78,34.03-7.06,8.08-1.02,10.21-1.11,15.82-1.11,6.64,0,9.61.43,10.8,1.53.85.85,1.36,2.64.94,3.32-.34.51-.17,1.7.25,1.87.68.25,0,3.23-.85,3.66-.34.17-3.06.26-6.21.26-6.55,0-10.21.25-19.31,1.45-6.12.77-14.72,2.04-15.65,2.38-.34.08-.34.17,0,.34.26.17.34.6.26,1.36-.17,1.28-2.89,7.15-5.61,12.25-4.25,8-12.76,25.6-15.57,32.33-2.55,6.21-5.27,15.74-5.87,20.76-.25,2.55-.77,4.85-1.02,5.27-.43.42-1.19.42-1.96-.26-.43-.25-.94-.51-1.19-.51-.68,0-3.74-3.06-4.34-4.34-2.47-5.61,0-16.33,7.83-33.35,1.36-2.89,8.08-15.48,10.97-20.59,2.13-3.74,2.47-4.51,2.13-4.68-.6-.34-7.57,0-11.14.51-1.53.26-5.02.85-7.66,1.36-8.85,1.79-9.87,1.87-10.21.94Zm10.04-7.32c11.82-4.59,21.44-6.89,44.66-10.89l1.62-.25-1.79.08c-1.96.17-14.55,2.21-19.14,3.15-10.04,2.04-23.99,6.38-28.5,8.93-1.28.68-1.11.6,3.15-1.02Zm-3.06,5.27c-.17-.08-.34-.08-.6,0-.17.08-.17.17.17.17s.51-.08.43-.17Zm1.79-.26c-.17-.08-.6-.08-.85,0-.26,0-.08.08.34.08.51,0,.68,0,.51-.08Zm6.47-5.87c5.36-1.79,13.27-3.91,18.37-5.1,2.98-.68,3.83-1.11,1.02-.51-7.06,1.36-20.84,5.44-24.58,7.15-1.45.68-1.62.77,5.19-1.53Zm-4.76,5.53c-.26,0-.6-.08-.85,0-.25.08-.17.17.34.17.43,0,.68-.08.51-.17Zm.34,53.17c.17-1.36.6-3.66.94-5.19.85-3.49,2.81-9.53,4.34-13.19.68-1.62,1.19-3.06,1.11-3.06-.17-.26-2.89,6.55-4.17,10.55-1.53,4.59-2.64,9.7-2.64,11.82,0,1.45.09,1.36.43-.94Zm21.18-47.81l.6-1.11-.68.85c-.43.43-1.62,2.47-2.72,4.42-2.3,4.34-8.76,17.1-9.78,19.48-5.7,12.76-8,20.42-7.91,26.2.08,1.45.08,2.21.17,1.53.08-.6.25-2.13.34-3.4,1.28-10.38,7.32-24.75,19.99-47.98Zm-19.74-5.61c-.08-.09-.34-.09-.6,0-.17.08-.09.17.17.17.34,0,.51-.08.43-.17Zm7.15,34.2c3.57-8.51,14.72-30.03,20.5-39.47.77-1.28,1.28-2.38,1.19-2.47-.08-.17-2.72,4.17-5.95,9.78-4.08,7.15-12.68,23.9-15.23,29.86-2.04,4.59-3.91,9.7-5.02,13.27-1.11,3.66-2.04,8.51-2.04,9.95.08.94.08.85.34-.42.08-.85.6-2.98.94-4.68.94-4.25,2.98-10.38,5.27-15.82Zm-5.19-34.45c-.17-.08-.34-.08-.6,0-.17.08-.17.17.17.17s.51-.08.43-.17Zm3.23,47.72c-.34.42-1.96,7.66-2.21,10.55-.08.85-.26,1.96-.34,2.47-.08.68,0,.85.17.6.09-.25.34-1.45.43-2.72.09-1.28.6-4.17,1.11-6.55q1.02-4.51.85-4.34Zm-1.87-48.57c-.09-.08-.34-.08-.51,0-.25.08-.17.17.17.17.25,0,.43-.08.34-.17Zm2.21.34c-.08-.17-.34-.17-.51-.09-.26.09-.17.17.17.17.25,0,.43,0,.34-.08Zm11.99-2.47l1.7.26,1.28-1.79c.68-.94,1.19-1.79,1.11-1.87-.26-.25-16.16,3.57-16.59,4-.08.08.43.08,1.02-.08.6-.08,3.06-.25,5.44-.51,3.06-.17,4.85-.17,6.04,0Zm-12.5,34.62c0,.34.17.25.6-.6q.25-.68-.17-.17c-.17.25-.43.68-.43.77Zm.85-42.96c0,.08.17.08.43,0,.17-.08,2.3-.77,4.59-1.53,2.38-.77,4.76-1.45,5.27-1.62.51-.09.85-.26.6-.26-.51-.25-10.89,3.06-10.89,3.4Zm.6,39.81c0,.42.17.34.34-.17.08-.17.08-.34-.09-.26-.17.08-.25.34-.25.43Zm.77-29.86c-.17-.08-.34-.08-.6-.08q-.17.17.17.17c.34.08.51,0,.43-.09Zm0,37.52c0-.17-.08-.08-.26.17-.17.17-.26.51-.26.68s.09.08.26-.17c.17-.17.26-.51.26-.68Zm.85-1.96c0-.17-.08-.08-.26.17-.17.26-.25.51-.25.68s.08.08.25-.17c.17-.17.26-.51.26-.68Zm12.5-47.21c-3.83.94-12.42,3.32-12.76,3.66-.17.17.34.08,3.66-.85,4.85-1.36,11.57-2.89,17.18-3.91,3.66-.68,11.65-2.04,13.36-2.21.85-.17,1.7-.25,2.04-.34.25,0,2.3-.26,4.59-.51,4.25-.51,5.87-.94,2.21-.6-1.79.17-6.81.77-9.87,1.19-5.87.77-14.89,2.3-20.42,3.57Zm-12.08,45.68c-.17.43-.43.85-.43,1.02,0,.08.26-.09.43-.43.26-.43.43-.85.43-1.02,0-.08-.17.08-.43.42Zm.43-9.44c0,.43.17.34.43-.17.08-.25,0-.34-.17-.25-.08.08-.26.34-.26.42Zm.94,6.38c-.17.43-.34.85-.34,1.02s.17-.09.34-.43c.25-.43.43-.85.43-1.02,0-.08-.17.08-.43.42Zm.51-30.71c-.17-.08-.51-.08-.68,0-.17.08,0,.08.34.08.43,0,.51,0,.34-.08Zm.26-.6c-.17-.08-.43-.08-.68,0-.17.08,0,.17.34.17.43,0,.6-.08.34-.17Zm.94,27.82c-.26.34-.43.68-.43.85,0,.34.17.17.51-.68q.34-.68-.08-.17Zm.26-8.17c.08,0,1.11-1.87,2.3-4.08,1.19-2.3,2.55-4.85,3.06-5.7.51-.94.94-1.7.85-1.79-.17-.17-1.28,1.96-4.34,7.74-1.11,2.13-1.96,3.83-1.87,3.83Zm.85,5.96c-.17.34-.43.68-.43.85,0,.34.17.17.6-.68q.26-.68-.17-.17Zm.94-25.86c-.25-.08-.77-.08-1.02,0-.26.08,0,.08.51.08s.77,0,.51-.08Zm0,24.24c0-.17-.08-.08-.25.08-.09.25-.26.6-.26.77,0,.08.17.08.26-.17.17-.26.25-.51.25-.68Zm2.21-4.51c-.08-.08-.26.08-.34.34-.17.43-.08.43.17.17.17-.17.26-.43.17-.51Zm1.87-32.67c.25.08.43,0,.34-.08-.09-.08-.34-.17-.51-.08-.25.08-.17.17.17.17Zm1.11-.25c.25,0,.43-.08.34-.17-.08-.09-.34-.09-.51,0-.26.08-.17.17.17.17Zm1.11-.26c.26,0,.43-.08.34-.17s-.34-.08-.51,0c-.26.08-.17.17.17.17Zm1.36-.25c.34,0,.51-.08.34-.17-.08-.08-.26-.08-.51,0q-.17.08.17.17Zm3.06,13.78c1.45-2.47,2.89-4.76,3.15-5.1.26-.34.34-.6.17-.6-.51,0-6.21,9.1-6.21,9.95,0,.51-.08.68,2.89-4.25Zm.51-3.23c-.6.68-3.15,4.59-3.15,4.85,0,.42.43-.08,1.53-2.04.77-1.11,1.53-2.47,1.7-2.81l.51-.68-.6.68Zm-.94,11.23c-.09.08-.26.34-.26.43,0,.42.26.34.43-.17.08-.25,0-.34-.17-.25Zm6.12-11.4c-.08,0-1.45,2.47-2.98,5.53-1.62,3.06-2.81,5.53-2.64,5.36.17-.17,1.53-2.64,2.98-5.53,1.53-2.89,2.72-5.27,2.64-5.36Zm-4.51-5.87c-.08-.08-.34-.08-.51,0-.25.08-.17.17.17.17.26,0,.43-.08.34-.17Zm-.08-3.4c.34,0,.51-.08.34-.17-.08-.08-.25-.08-.51,0q-.17.08.17.17Zm1.36-.34c.34.08.51,0,.43-.08s-.34-.17-.51-.08c-.26.08-.17.17.08.17Zm18.89-.68c-.17-.08-.51-.08-.85,0-.25.08-.08.08.34.08.51.08.68,0,.51-.08Zm2.21-.25c-.17-.08-.51-.08-.68,0-.17.08,0,.08.34.08.43,0,.51,0,.34-.08Z"/>
    <path class="cls-3" d="m48.74,190.1c-.17.51-.09.68.17.51.34-.08.34.08.17.6-.43,1.02-.34,1.19.17.42.43-.6.51-.6.77-.25.17.25.6.6.94.77s.6.51.6.68c0,.25.17.42.26.42.6,0,.34,1.87-.51,3.91-.43,1.02-.77,1.96-.68,1.96,0,0,.6-.43,1.11-1.02,2.64-2.38,4.85-3.32,7.15-3.06,2.72.34,10.55,5.19,10.21,6.38-.08.17-.68.51-1.36.68-1.19.42-1.36.34-3.06-.34-2.47-.94-3.32-1.11-4.59-.68-1.7.43-3.49,1.7-6.21,4.51-4.34,4.34-8.51,10.04-12.42,16.67-1.7,2.98-4.34,8.08-4.34,8.51,0,.17-.26.51-.6.77-.34.34-.51.42-.51.17s-.08-.26-.43,0c-.26.17-.43.17-.77-.26-.26-.25-.51-.68-.51-.94,0-.42-.51-.77-1.53-.77-.94,0-2.04-1.79-2.04-3.32,0-4.34,2.38-11.4,7.66-23.31,2.21-4.85,7.06-13.1,8.17-13.95.94-.68,2.38-.08,2.21.94Zm-2.3,4.76c.68-1.19,1.19-2.3,1.11-2.38-.34-.34-7.23,13.36-9.61,19.14-2.21,5.36-4.34,11.57-3.91,11.31.17-.08.6-1.11.94-2.3,2.21-6.89,7.32-18.46,11.48-25.78Zm-6.72,16.25c1.19-2.89,3.57-8,5.36-11.4,1.7-3.4,2.98-6.12,2.81-6.12-.34.17-5.02,9.1-7.15,13.95-2.47,5.61-4.93,11.74-4.51,11.48.09,0,.43-.68.77-1.45.34-.77,1.62-3.66,2.72-6.47Zm8.93-16.33c-.6.85-5.19,9.87-6.98,13.87-1.62,3.66-2.13,5.19-.68,2.3.43-.94,2.38-5.02,4.42-9.19,1.96-4.17,3.49-7.23,3.23-6.98Zm-3.49,17.01l-.68.85c-.43.43-.68.94-.68,1.11q0,.25.77-1.02l.6-.94Zm2.72-3.74c-.94,1.11-3.15,4.08-2.38,3.32.17-.26,1.02-1.28,1.87-2.38.77-1.02,1.02-1.45.51-.94Zm-.25-6.04c-.17.25-.17.42-.08.42s.68-1.19,1.45-2.64c.68-1.45,1.19-2.72,1.11-2.81s-.6.94-1.19,2.21c-.6,1.28-1.19,2.47-1.28,2.81Zm1.87,4c-.26.25-.43.42-.43.51,0,.26.17.08.6-.34q.34-.51-.17-.17Zm.77-.77s.43-.43.94-.94l.77-.85-.94.77c-.77.77-1.02,1.02-.77,1.02Z"/>
    <path class="cls-3" d="m97.65,206.77c-7.15,10.63-15.99,20.67-20.16,22.63-1.87.94-3.06,1.11-4.42.6-.6-.26-1.36-.68-1.79-1.11-.43-.34-1.19-.94-1.79-1.28-2.3-1.36-4.08-4.93-4.34-8.59-.26-4.42.85-8.59,4-14.8,4.85-9.78,9.44-14.04,10.97-10.29.26.51.51.77.85.77.26-.08.43.08.34.34-.08.42.08.51.43.34.26-.08.34-.08.26.08-.08.25,0,.25.34.17.43-.08.6,0,.6.34,0,.25.17.42.43.42.94,0,.26,1.87-3.32,9.19-5.36,10.89-7.15,15.74-7.15,19.31v1.36l1.11-.17c1.36-.17,3.4-1.19,5.61-2.64,2.21-1.62,5.78-5.36,11.48-11.99,1.45-1.79,3.74-4.34,5.02-5.7,2.21-2.38,2.38-2.47,2.81-2.04.43.42.34.6-1.28,3.06Zm-28.41,6.89c.6-1.79,1.62-4.17,2.21-5.44,1.28-2.64,2.04-4.34,1.87-4.34-.08,0-.94,1.7-1.96,3.74-1.79,3.74-3.23,7.57-3.15,8.68,0,.34.43-.85,1.02-2.64Zm.26,3.32c.43-1.62,1.19-3.83,1.62-5.02,1.36-3.49,4.51-9.7,7.49-14.55l.51-.85-.6.68c-1.79,1.96-6.21,10.21-8,14.72-.94,2.38-1.79,6.12-1.79,7.32,0,.34.43-.68.77-2.3Zm10.63-19.57c1.11-1.87.34-1.02-1.11,1.11-1.87,2.89-6.12,11.31-7.32,14.63-1.02,2.81-1.53,4.85-1.02,4.17.17-.25.25-.6.25-.77,0-1.62,5.53-13.01,9.19-19.14Zm-7.23,21.52c.43-1.45.77-2.64.68-2.72-.08-.17-1.53,4.34-1.53,4.93.08.26.43-.77.85-2.21Zm.68-15.31c.08,0,.43-.51.68-1.11.34-.6.51-1.11.43-1.11,0,0-.34.51-.68,1.11s-.51,1.11-.43,1.11Zm.68,11.31c0-.17-.08-.08-.26.08-.17.26-.25.6-.25.77,0,.08.08.08.25-.17.17-.25.26-.51.26-.68Zm1.62-4c-.08-.08-1.62,3.23-1.53,3.49,0,.17.34-.6.85-1.53.43-1.02.77-1.87.68-1.96Zm.68-1.62c-.17.08-.34.34-.34.43,0,.42.26.34.43-.17.08-.17,0-.34-.08-.25Zm1.62-7.49c-.17.08-.26.26-.26.43,0,.42.17.34.43-.17.09-.26,0-.34-.17-.26Zm2.21-17.44c0-.17.25-.77.51-1.28.77-1.53,6.12-4.51,9.02-4.93,1.11-.17,1.28-.17,2.3.77.6.51,1.02,1.11,1.02,1.36,0,.17-.68.77-1.53,1.36-1.96,1.19-4,3.15-5.02,4.68-.85,1.36-1.79,2.55-2.04,2.47-.09,0-.43-.08-.68-.17-.26,0-.6-.42-.77-.77-.17-.42-.51-.77-.94-.94-.68-.25-1.87-1.87-1.87-2.55Zm2.55.85c0,.43.26.34.6-.34q.25-.6-.17-.26c-.25.26-.43.51-.43.6Zm.77.85c.08,0,.6-.6,1.02-1.19.43-.68.6-1.02.34-.77-.68.51-1.7,1.96-1.36,1.96Zm4.76,30.28c-.34.25-.51.43-.51.51,0,.25.26.08.6-.34q.34-.51-.09-.17Zm1.62-1.02s-.34.25-.6.51c-.26.34-.43.6-.34.6s.34-.25.6-.6c.25-.25.43-.51.34-.51Zm-.26-.6c-.26.17-.51.43-.51.43,0,.25.25.08.6-.34q.34-.42-.08-.08Zm1.11-1.45c-.26.25-.51.43-.51.51,0,.25.26.08.6-.34q.34-.51-.08-.17Zm1.11-.51c-.26.17-.51.43-.51.51,0,.17.26.08.6-.42q.34-.43-.08-.09Zm1.53-1.79c-.17-.08-.26-.34-.17-.42.43-.68-.26-.17-1.02.94-.51.6-.77,1.02-.51.85.26-.25.51-.34.6-.25.08.08.34-.09.51-.34.34-.34.34-.42,0-.25-.26.17-.34.17-.26-.08.09-.26.43-.43.68-.34q.34,0,.17-.08Zm1.45-2.3c-.17,0-.68.34-1.02.77-.34.34-.43.51-.17.34.26-.17.51-.26.6-.17.08.09.34-.08.6-.42.34-.43.43-.51,0-.51Zm.77-1.02c-.17-.08-.43,0-.6.25-.26.26-.26.34.08.34.26-.08.51-.17.6-.26.09-.08.09-.25-.08-.34Zm.43-1.02q-.51.51,0,.42c.26,0,.51-.25.51-.51q.08-.59-.51.09Zm1.62-1.53c-.17,0-.6.25-.77.42q-.26.34.08.08c.25-.08.51-.17.6-.17.09-.08.26-.17.34-.25.17-.08,0-.17-.25-.08Zm.34-1.02c-.08.17,0,.26.26.26.17,0,.43,0,.43-.08,0-.26-.6-.34-.68-.17Z"/>
    <path class="cls-3" d="m126.74,209.58c-4.34,8.76-12.08,17.86-16.93,20.08-2.3,1.02-4.42,1.19-6.89.43-2.04-.6-2.38-.77-4.08-1.7-1.45-.77-2.04-1.36-1.62-1.79.17-.25.51-.42.77-.42s.6-.08.68-.17c.08-.17,1.02-.77,2.13-1.28,1.62-.77,2.64-1.62,4.93-3.91,3.4-3.4,5.19-5.61,8.42-10.38,3.66-5.36,7.83-12.76,7.4-13.1-.25-.26-3.49,2.13-6.38,4.59-3.74,3.32-7.91,7.91-11.91,13.44-7.32,9.87-7.49,10.04-8.59,13.53-2.3,6.98-3.49,14.12-3.23,19.48.08,2.04,0,4-.08,4.34-.34.94-1.28,1.11-2.04.51-.34-.26-1.11-.68-1.62-.85-.51-.17-1.53-.94-2.21-1.7-1.96-1.87-2.3-3.32-2.38-9.19,0-4.85.17-6.04,1.53-11.74,1.36-5.53,3.74-10.97,8.68-20.08,6.81-12.59,13.1-20.67,15.4-19.82.26.08.43.34.43.42,0,.34,1.28,1.7,1.53,1.7.68-.08.77,0,.6.85l-.17.94.42-.68.34-.77.09.85c0,.68-2.04,5.1-3.49,7.4-.25.51,1.53-1.11,4-3.66,8.08-8.08,11.23-9.27,13.78-5.19.17.34.85.94,1.36,1.28s1.28,1.19,1.7,1.96c1.62,3.06.77,8.08-2.55,14.63Zm-40.32,28.41c.17-1.19.43-2.72.6-3.32.08-.6.08-1.02,0-.94-.26.26-1.02,4.34-.94,5.53,0,.6.08.17.34-1.28Zm1.53-2.81c.26-1.36,1.36-6.04,1.87-7.74q.08-.42-.17-.17c-.85,1.45-2.72,10.29-2.81,13.27-.08,2.81.08,2.64.43-.6.17-1.7.51-3.83.68-4.76Zm-.68-2.13c.08-.08.08-.34.08-.51-.17-.25-.17-.17-.17.17-.08.25,0,.43.08.34Zm5.61-10.72c-1.19,2.72-2.38,5.95-2.98,8.25-.77,2.98-1.7,7.74-1.62,8.93,0,.6.26-.17.51-1.79.26-1.53.94-4.59,1.53-6.81.51-2.21,1.53-5.36,2.21-7.06,1.36-3.4,1.53-4.34.34-1.53Zm-2.13,17.01c-.08.34-.34,1.53-.43,2.47-.08,1.36-.08,1.53.08.68.17-.6.34-1.79.43-2.55.09-.94.09-1.11-.08-.59Zm4.42-21.69c0-.08-.34.34-.68,1.02s-.68,1.36-.68,1.53.34-.34.68-1.02.68-1.36.68-1.53Zm1.96-3.91c-.09-.08-.26.08-.43.34q-.09.43.17.17c.26-.17.34-.42.26-.51Zm1.53-2.81c2.04-3.66,6.38-10.89,9.02-14.97,1.28-1.96,2.13-3.49,1.87-3.23-.51.42-5.7,8.42-7.74,12.08-2.21,3.83-4.76,8.59-4.59,8.59.08,0,.77-1.11,1.45-2.47Zm-1.28-.6c0,.34.26.26.43-.17.09-.25.09-.34-.08-.25-.17.08-.34.25-.34.42Zm1.28-1.96c.08,0,.25-.26.43-.6.17-.25.25-.51.17-.51s-.26.26-.43.51c-.17.34-.26.6-.17.6Zm1.36-2.55c.08,0,.85-1.11,1.62-2.38.77-1.36,2.3-3.74,3.32-5.36,1.02-1.53,1.79-2.81,1.7-2.72-.68.43-7.06,10.46-6.64,10.46Zm6.47,1.96c-.68.6-5.61,6.98-5.36,6.98.08,0,.85-.94,1.7-2.13.94-1.19,2.21-2.89,2.89-3.74.77-.85,1.11-1.36.77-1.11Zm4.59-5.1c-1.02.85-4.34,4.59-4.17,4.59.08,0,1.28-1.28,2.64-2.72,1.36-1.53,2.04-2.38,1.53-1.87Zm-2.13,1.53c.08,0,.25-.25.51-.51q.34-.43-.17-.08c-.42.34-.6.59-.34.59Zm5.95-5.36c-.08,0-.42.34-.77.77-.34.34-.59.68-.51.68s.42-.34.77-.68c.34-.43.6-.77.51-.77Zm3.23,16.84c3.06-4,5.36-7.83,6.72-11.06.77-1.79.17-1.11-1.02,1.28-1.53,2.98-3.91,6.8-6.81,10.8-1.28,1.79-1.96,2.72-1.36,2.04.51-.6,1.62-1.96,2.47-3.06Zm.6-3.15c2.89-4.08,6.38-10.8,6.98-13.36.25-1.19,0-1.11-.43.17-.85,2.47-4.42,9.19-7.23,13.44-2.64,4-2.3,3.83.68-.25Zm1.62-4.68c1.7-2.98,3.74-7.06,3.91-8,.17-.51-.68.94-1.79,3.06-1.02,2.13-2.38,4.68-2.89,5.61-1.36,2.47-.77,1.96.77-.68Zm7.4-3.57c0-.17-.85,1.45-1.87,3.49-1.02,2.04-1.87,3.83-1.96,4-.08.08,0,.17.08.17s1.02-1.62,1.96-3.66c1.02-2.04,1.79-3.83,1.79-4Z"/>
    <path class="cls-3" d="m165.96,209.58c-4.34,8.76-12.08,17.86-16.93,20.08-2.3,1.02-4.42,1.19-6.89.43-2.04-.6-2.38-.77-4.08-1.7-1.45-.77-2.04-1.36-1.62-1.79.17-.25.51-.42.77-.42s.6-.08.68-.17c.08-.17,1.02-.77,2.13-1.28,1.62-.77,2.64-1.62,4.93-3.91,3.4-3.4,5.19-5.61,8.42-10.38,3.66-5.36,7.83-12.76,7.4-13.1-.25-.26-3.49,2.13-6.38,4.59-3.74,3.32-7.91,7.91-11.91,13.44-7.32,9.87-7.49,10.04-8.59,13.53-2.3,6.98-3.49,14.12-3.23,19.48.09,2.04,0,4-.08,4.34-.34.94-1.28,1.11-2.04.51-.34-.26-1.11-.68-1.62-.85-.51-.17-1.53-.94-2.21-1.7-1.96-1.87-2.3-3.32-2.38-9.19,0-4.85.17-6.04,1.53-11.74,1.36-5.53,3.74-10.97,8.68-20.08,6.81-12.59,13.1-20.67,15.4-19.82.25.08.42.34.42.42,0,.34,1.28,1.7,1.53,1.7.68-.08.77,0,.6.85l-.17.94.42-.68.34-.77.08.85c0,.68-2.04,5.1-3.49,7.4-.25.51,1.53-1.11,4-3.66,8.08-8.08,11.23-9.27,13.78-5.19.17.34.85.94,1.36,1.28s1.28,1.19,1.7,1.96c1.62,3.06.77,8.08-2.55,14.63Zm-40.32,28.41c.17-1.19.43-2.72.6-3.32.08-.6.08-1.02,0-.94-.26.26-1.02,4.34-.94,5.53,0,.6.08.17.34-1.28Zm1.53-2.81c.25-1.36,1.36-6.04,1.87-7.74q.09-.42-.17-.17c-.85,1.45-2.72,10.29-2.81,13.27-.09,2.81.08,2.64.42-.6.17-1.7.51-3.83.68-4.76Zm-.68-2.13c.08-.08.08-.34.08-.51-.17-.25-.17-.17-.17.17-.08.25,0,.43.08.34Zm5.61-10.72c-1.19,2.72-2.38,5.95-2.98,8.25-.77,2.98-1.7,7.74-1.62,8.93,0,.6.26-.17.51-1.79.25-1.53.94-4.59,1.53-6.81.51-2.21,1.53-5.36,2.21-7.06,1.36-3.4,1.53-4.34.34-1.53Zm-2.13,17.01c-.08.34-.34,1.53-.43,2.47-.08,1.36-.08,1.53.08.68.17-.6.34-1.79.43-2.55.08-.94.08-1.11-.08-.59Zm4.42-21.69c0-.08-.34.34-.68,1.02-.34.68-.68,1.36-.68,1.53s.34-.34.68-1.02c.34-.68.68-1.36.68-1.53Zm1.96-3.91c-.08-.08-.26.08-.43.34q-.08.43.17.17c.26-.17.34-.42.26-.51Zm1.53-2.81c2.04-3.66,6.38-10.89,9.02-14.97,1.28-1.96,2.13-3.49,1.87-3.23-.51.42-5.7,8.42-7.74,12.08-2.21,3.83-4.76,8.59-4.59,8.59.08,0,.77-1.11,1.45-2.47Zm-1.28-.6c0,.34.25.26.43-.17.08-.25.08-.34-.08-.25-.17.08-.34.25-.34.42Zm1.28-1.96c.08,0,.25-.26.42-.6.17-.25.26-.51.17-.51s-.26.26-.43.51c-.17.34-.25.6-.17.6Zm1.36-2.55c.08,0,.85-1.11,1.62-2.38.77-1.36,2.3-3.74,3.32-5.36,1.02-1.53,1.79-2.81,1.7-2.72-.68.43-7.06,10.46-6.63,10.46Zm6.46,1.96c-.68.6-5.61,6.98-5.36,6.98.08,0,.85-.94,1.7-2.13.94-1.19,2.21-2.89,2.89-3.74.77-.85,1.11-1.36.77-1.11Zm4.59-5.1c-1.02.85-4.34,4.59-4.17,4.59.08,0,1.28-1.28,2.64-2.72,1.36-1.53,2.04-2.38,1.53-1.87Zm-2.13,1.53c.08,0,.25-.25.51-.51q.34-.43-.17-.08c-.42.34-.59.59-.34.59Zm5.96-5.36c-.08,0-.43.34-.77.77-.34.34-.6.68-.51.68s.43-.34.77-.68c.34-.43.6-.77.51-.77Zm3.23,16.84c3.06-4,5.36-7.83,6.72-11.06.77-1.79.17-1.11-1.02,1.28-1.53,2.98-3.91,6.8-6.81,10.8-1.28,1.79-1.96,2.72-1.36,2.04.51-.6,1.62-1.96,2.47-3.06Zm.6-3.15c2.89-4.08,6.38-10.8,6.98-13.36.25-1.19,0-1.11-.43.17-.85,2.47-4.42,9.19-7.23,13.44-2.64,4-2.3,3.83.68-.25Zm1.62-4.68c1.7-2.98,3.74-7.06,3.91-8,.17-.51-.68.94-1.79,3.06-1.02,2.13-2.38,4.68-2.89,5.61-1.36,2.47-.77,1.96.77-.68Zm7.4-3.57c0-.17-.85,1.45-1.87,3.49-1.02,2.04-1.87,3.83-1.96,4-.08.08,0,.17.08.17s1.02-1.62,1.96-3.66c1.02-2.04,1.79-3.83,1.79-4Z"/>
    <path class="cls-3" d="m165.79,256.71c-.25-.25-.85-.77-1.45-1.02-.51-.25-1.36-1.02-1.87-1.62-1.11-1.45-1.11-2.38,0-2.47.43-.09.77,0,.77.08,0,.42,1.36.94,2.3.94,4.17,0,12.25-9.44,19.31-22.71,1.02-1.87,1.19-2.38.77-2.04-2.47,1.79-3.15,2.13-3.91,2.47-1.36.43-3.32.34-4.17-.08-.42-.25-1.11-.77-1.53-1.28-.42-.51-.94-.85-1.19-.85-.68,0-2.64-2.3-3.66-4.34-1.11-2.21-1.62-5.27-1.36-7.66.94-8.17,7.74-21.95,12.5-25.35,1.11-.77,2.98-1.11,2.98-.6,0,.43,1.28,1.7,1.7,1.7.26,0,.6.34.77.68.43.77.17,1.28-2.55,6.47-2.81,5.27-5.87,12.76-7.06,17.44-1.02,3.91-1.11,8.59-.17,8.59.85,0,3.74-2.13,5.7-4.08,4.85-5.02,13.7-18.29,15.57-23.39,1.7-4.68,2.64-6.04,4-5.87.6,0,.85.26.94.68,0,.34.17.6.34.6.08,0,.08.34,0,.68-.08.51-.08.6.34.25.43-.34.51-.34.51,0,0,.26.17.51.34.51.25,0,.68.34.94.85.42.68.51,1.02.34,2.38-.68,4.17-4.17,15.23-8.42,26.37-3.23,8.68-9.44,20.16-14.21,26.2-2.64,3.49-6.81,7.06-9.27,8-1.28.51-3.23.68-4.68.51-1.53-.17-4-1.36-4.59-2.04Zm7.4-43.13c-.08-.25-.17-.17-.17.17,0,.25.08.42.17.34s.08-.34,0-.51Zm1.62-4.25c.77-2.21,2.13-5.44,2.98-7.23.85-1.79,1.53-3.23,1.45-3.23-.34,0-4.17,8.25-5.19,11.57-1.28,3.66-.85,2.98.77-1.11Zm7.83-13.95c.34-.43.34-.68.17-.6s-1.11,1.45-2.04,2.98c-2.81,4.59-5.87,12-6.97,16.67-.77,3.49-.6,3.66.34.34.43-1.62,1.45-4.59,2.21-6.64,1.79-4.68,4.17-9.44,6.29-12.76Zm-6.21,15.23c.08-.08.68-1.62,1.45-3.32,1.7-4.25,4.25-9.19,6.12-11.99.85-1.28,1.53-2.38,1.45-2.47-.26-.26-3.57,5.02-4.93,7.83-1.79,3.57-4.68,10.46-4.08,9.95Zm3.49-2.81c0-.08-.08.08-.25.25-.34.68-2.21,5.87-2.21,6.21s2.47-6.21,2.47-6.46Zm-.08,41.17s.26-.17.43-.42c.34-.43.34-.51-.08-.17-.43.43-.6.6-.34.6Zm1.45-44.41c-.17-.17-1.36,2.55-1.28,2.89,0,.08.34-.51.68-1.28.34-.85.6-1.62.6-1.62Zm-.17,42.79c.42-.34,1.45-1.62,2.3-2.72,2.3-3.23,5.36-8.34,7.49-12.59,1.87-3.83,4.08-8.76,4.08-9.19,0-.08-1.11,2.21-2.55,5.1-3.83,7.74-7.49,14.12-10.72,18.38-.68.94-.94,1.45-.6,1.02Zm-.08-2.04c.17-.08,1.02-1.28,1.96-2.64,4.76-6.98,9.61-16.33,13.02-25.18.51-1.28,1.19-2.98,1.53-3.83.25-.77.43-1.36.34-1.28-.17.08-.94,1.7-1.7,3.57-4.17,10.21-9.87,21.18-14.04,27.48-.77,1.11-1.28,1.96-1.11,1.87Zm2.04-51.04c0,.25.17.08.6-.34.34-.42.26-.42-.17-.08-.25.17-.43.43-.43.43Zm1.45,43.55c.08,0,.77-1.02,1.62-2.38,2.72-4.68,8.85-17.52,8.51-17.86-.17-.09-.42.42-2.55,5.27-1.19,2.72-5.61,11.4-6.81,13.53-.51.85-.77,1.45-.77,1.45Zm4.08-17.01c0,.17.25,0,.59-.43q.34-.42-.08-.08c-.25.17-.51.43-.51.51Zm8.85,2.64c-.08,0-.77,1.53-1.7,3.49-.85,1.96-1.96,4.59-2.55,5.78-.51,1.19-.85,2.13-.68,1.96.17-.17,1.11-2.13,2.13-4.34,1.87-4.08,2.89-6.72,2.81-6.89Z"/>
  </g>
</svg>